<svg width="266" height="51" viewBox="0 0 266 51" fill="none" xmlns="http://www.w3.org/2000/svg">
<g clip-path="url(#clip0)">
<path d="M21.9298 6.83032L60.6397 20.7858L47.831 26.5042L9.12109 12.5487L21.9298 6.83032Z" fill="#AD1A27"/>
<path d="M17.3697 26.0503L56.0796 40.0058L43.2822 45.7242L4.57227 31.7686L17.3697 26.0503Z" fill="#AD1A27"/>
<path d="M60.5946 12.5487H9.09863L13.6934 1.54309H65.1781L60.5946 12.5487Z" fill="#ED1C24"/>
<path d="M56.0682 31.78H4.57227L9.15573 20.7631H60.6517L56.0682 31.78Z" fill="#ED1C24"/>
<path d="M51.4959 51.0001H0L4.58347 39.9945H56.0794L51.4959 51.0001Z" fill="#ED1C24"/>
<path d="M92.5425 6.90968L92.1908 5.04895C91.045 4.48165 89.5814 4.198 87.8229 4.198C85.7014 4.198 83.8181 4.94684 82.1503 6.45585C80.4939 7.96486 79.6544 9.83694 79.6544 12.0948C79.6544 14.3526 80.4826 16.2247 82.1503 17.7337C83.8067 19.2427 85.7014 19.9916 87.8229 19.9916C90.4096 19.9916 92.5199 19.0158 94.1536 17.0416L96.2184 19.1066C95.1746 20.2865 93.9153 21.2169 92.4404 21.8863C90.9769 22.5557 89.434 22.8961 87.8229 22.8961C84.8278 22.8961 82.2297 21.8409 80.0401 19.7192C77.8391 17.5976 76.75 15.0561 76.75 12.0834C76.75 9.1108 77.8505 6.55796 80.0401 4.44762C82.2411 2.32592 84.8278 1.27075 87.8229 1.27075C90.4437 1.27075 92.8716 1.9742 95.1066 3.36975V6.89834H92.5425V6.90968Z" fill="black"/>
<path d="M107.382 6.4104C109.651 6.4104 111.637 7.21596 113.316 8.82709C114.995 10.4382 115.834 12.3784 115.834 14.6249C115.834 16.894 114.995 18.8456 113.316 20.468C111.637 22.0905 109.651 22.9074 107.382 22.9074C105.09 22.9074 103.105 22.0905 101.426 20.468C99.7468 18.8456 98.9072 16.894 98.9072 14.6249C98.9072 12.367 99.7468 10.4382 101.426 8.82709C103.105 7.21596 105.09 6.4104 107.382 6.4104ZM111.274 10.892C110.173 9.84822 108.88 9.32631 107.382 9.32631C105.885 9.32631 104.58 9.84822 103.479 10.892C102.368 11.9359 101.823 13.1839 101.823 14.6362C101.823 16.1112 102.379 17.3819 103.479 18.4258C104.591 19.4696 105.885 20.0028 107.382 20.0028C108.88 20.0028 110.173 19.4809 111.274 18.4258C112.374 17.3706 112.919 16.1112 112.919 14.6362C112.919 13.1726 112.374 11.9245 111.274 10.892Z" fill="black"/>
<path d="M126.589 6.4104C128.858 6.4104 130.844 7.21596 132.523 8.82709C134.202 10.4382 135.041 12.3784 135.041 14.6249C135.041 16.894 134.202 18.8456 132.523 20.468C130.844 22.0905 128.858 22.9074 126.589 22.9074C124.297 22.9074 122.312 22.0905 120.633 20.468C118.954 18.8456 118.114 16.894 118.114 14.6249C118.114 12.367 118.954 10.4382 120.633 8.82709C122.312 7.21596 124.297 6.4104 126.589 6.4104ZM130.492 10.892C129.391 9.84822 128.098 9.32631 126.6 9.32631C125.103 9.32631 123.798 9.84822 122.698 10.892C121.586 11.9359 121.041 13.1839 121.041 14.6362C121.041 16.1112 121.597 17.3819 122.698 18.4258C123.81 19.4696 125.103 20.0028 126.6 20.0028C128.098 20.0028 129.391 19.4809 130.492 18.4258C131.592 17.3706 132.137 16.1112 132.137 14.6362C132.137 13.1726 131.581 11.9245 130.492 10.892Z" fill="black"/>
<path d="M140.555 22.828H137.64V6.50117H139.977L140.419 8.89517C142.461 7.23866 144.356 6.42175 146.103 6.42175C147.93 6.42175 149.405 6.75079 150.539 7.40885V11.1417H148.123L147.918 9.50785C147.567 9.25824 146.965 9.13343 146.115 9.13343C145.162 9.13343 144.265 9.34901 143.414 9.7915C142.563 10.234 141.622 10.8921 140.567 11.7884V22.828H140.555Z" fill="black"/>
<path d="M160.875 22.9188C158.606 22.9188 156.688 22.1132 155.145 20.5135C153.603 18.9137 152.831 16.9622 152.831 14.6703C152.831 12.3784 153.603 10.4269 155.145 8.82714C156.688 7.22736 158.594 6.4218 160.875 6.4218C162.293 6.4218 163.768 6.86429 165.311 7.76062V0H168.227V22.828H165.889L165.538 21.1942C163.949 22.3402 162.395 22.9188 160.875 22.9188ZM160.875 20.0029C162.27 20.0029 163.756 19.4696 165.311 18.4031V10.6652C163.893 9.76885 162.418 9.32636 160.875 9.32636C159.423 9.32636 158.197 9.83693 157.21 10.8694C156.223 11.9019 155.735 13.1613 155.735 14.659C155.735 16.1339 156.223 17.3933 157.21 18.4372C158.197 19.481 159.423 20.0029 160.875 20.0029Z" fill="black"/>
<path d="M171.88 3.57401C171.516 3.25633 171.335 2.85922 171.335 2.39404C171.335 1.92885 171.516 1.53174 171.88 1.20271C172.243 0.87368 172.674 0.703491 173.173 0.703491C173.683 0.703491 174.115 0.87368 174.489 1.20271C174.863 1.53174 175.045 1.92885 175.045 2.39404C175.045 2.85922 174.863 3.25633 174.489 3.57401C174.115 3.8917 173.683 4.05054 173.173 4.05054C172.674 4.05054 172.243 3.8917 171.88 3.57401ZM174.636 6.50127V22.8281H171.721V6.50127H174.636Z" fill="black"/>
<path d="M181.047 22.828H178.131V6.50117H180.468L180.933 8.97458C181.886 8.2371 182.953 7.62442 184.121 7.13654C185.301 6.64866 186.345 6.4104 187.252 6.4104C188.886 6.4104 190.236 6.95501 191.314 8.03287C192.392 9.11073 192.936 10.6424 192.936 12.628V22.828H190.021V12.4464C190.021 11.5501 189.726 10.7899 189.136 10.1432C188.546 9.4965 187.786 9.17881 186.878 9.17881C185.165 9.17881 183.225 10.0411 181.047 11.777V22.828V22.828Z" fill="black"/>
<path d="M197.361 21.3984C196.362 20.3886 195.863 19.1292 195.863 17.6429C195.863 16.1566 196.362 14.8972 197.361 13.8874C198.359 12.8776 199.709 12.367 201.4 12.367C204.066 12.367 206.176 12.7528 207.753 13.5357V12.5145C207.753 11.448 207.367 10.6198 206.585 10.0184C205.802 9.42843 204.849 9.13343 203.726 9.13343C202.092 9.13343 200.776 9.39439 199.789 9.9163L199.619 11.0849H197.281V8.22576C198.393 7.57904 199.403 7.1252 200.333 6.84155C201.252 6.5579 202.387 6.42175 203.726 6.42175C205.824 6.42175 207.503 6.9777 208.774 8.10095C210.033 9.2242 210.669 10.8807 210.669 13.0705V22.8393H208.332L207.867 20.4226C206.891 21.2055 205.904 21.8182 204.905 22.2607C203.907 22.7032 202.727 22.9301 201.388 22.9301C199.709 22.9188 198.359 22.4082 197.361 21.3984ZM198.688 17.6429C198.688 18.3577 198.972 18.9931 199.55 19.5263C200.129 20.0596 200.935 20.3319 201.99 20.3319C203.918 20.3319 205.836 19.4129 207.764 17.5635V16.1339C206.176 15.351 204.145 14.9652 201.706 14.9652C200.674 14.9652 199.914 15.2262 199.437 15.7368C198.926 16.2473 198.688 16.8827 198.688 17.6429Z" fill="black"/>
<path d="M221.776 22.6238L219.711 22.9188C216.602 22.9188 215.048 21.1375 215.048 17.5862V9.12215H212.711V6.50124H215.048L215.627 2.33728H217.964V6.50124H221.787V9.12215H217.964V17.5749C217.964 18.4145 218.134 19.0499 218.463 19.481C218.792 19.9235 219.212 20.1391 219.722 20.1391H221.787V22.6238H221.776Z" fill="black"/>
<path d="M225.724 3.57401C225.361 3.25633 225.18 2.85922 225.18 2.39404C225.18 1.92885 225.361 1.53174 225.724 1.20271C226.087 0.87368 226.518 0.703491 227.018 0.703491C227.517 0.703491 227.959 0.87368 228.334 1.20271C228.708 1.53174 228.89 1.92885 228.89 2.39404C228.89 2.85922 228.708 3.25633 228.334 3.57401C227.959 3.8917 227.528 4.05054 227.018 4.05054C226.518 4.05054 226.087 3.8917 225.724 3.57401ZM228.481 6.50127V22.8281H225.565V6.50127H228.481Z" fill="black"/>
<path d="M240.144 6.4104C242.413 6.4104 244.398 7.21596 246.077 8.82709C247.756 10.4382 248.596 12.3784 248.596 14.6249C248.596 16.894 247.756 18.8456 246.077 20.468C244.398 22.0905 242.424 22.9074 240.144 22.9074C237.852 22.9074 235.867 22.0905 234.188 20.468C232.508 18.8456 231.669 16.894 231.669 14.6249C231.669 12.367 232.508 10.4382 234.188 8.82709C235.867 7.21596 237.852 6.4104 240.144 6.4104ZM244.035 10.892C242.935 9.84822 241.641 9.32631 240.144 9.32631C238.646 9.32631 237.342 9.84822 236.241 10.892C235.141 11.9359 234.585 13.1839 234.585 14.6362C234.585 16.1112 235.141 17.3819 236.241 18.4258C237.353 19.4696 238.646 20.0028 240.144 20.0028C241.641 20.0028 242.935 19.4809 244.035 18.4258C245.136 17.3706 245.68 16.1112 245.68 14.6362C245.68 13.1726 245.136 11.9245 244.035 10.892Z" fill="black"/>
<path d="M254.11 22.828H251.194V6.50117H253.531L253.997 8.97458C254.95 8.2371 256.016 7.62442 257.185 7.13654C258.365 6.64866 259.408 6.4104 260.316 6.4104C261.95 6.4104 263.3 6.95501 264.377 8.03287C265.455 9.11073 266 10.6424 266 12.628V22.828H263.084V12.4464C263.084 11.5501 262.789 10.7899 262.199 10.1432C261.609 9.4965 260.849 9.17881 259.941 9.17881C258.228 9.17881 256.288 10.0411 254.11 11.777V22.828V22.828Z" fill="black"/>
<path d="M92.5425 34.8661L92.1908 33.0054C91.045 32.4381 89.5814 32.1544 87.8229 32.1544C85.7014 32.1544 83.8181 32.9033 82.1503 34.4123C80.4939 35.9213 79.6544 37.8047 79.6544 40.0512C79.6544 42.2977 80.4826 44.1811 82.1503 45.6901C83.8067 47.1991 85.7014 47.948 87.8229 47.948C90.4096 47.948 92.5199 46.9609 94.1536 44.998L96.2184 47.063C95.1746 48.243 93.9153 49.1733 92.4404 49.8427C90.9656 50.5122 89.434 50.8525 87.8229 50.8525C84.8278 50.8525 82.2297 49.7974 80.0401 47.6757C77.8391 45.554 76.75 43.0125 76.75 40.0399C76.75 37.0672 77.8505 34.5144 80.0401 32.404C82.2411 30.2823 84.8278 29.2272 87.8229 29.2272C90.4437 29.2272 92.8716 29.9306 95.1066 31.3262V34.8548H92.5425V34.8661Z" fill="black"/>
<path d="M107.382 34.3668C109.651 34.3668 111.637 35.1724 113.316 36.7835C114.995 38.3946 115.834 40.3348 115.834 42.5813C115.834 44.8505 114.995 46.802 113.316 48.4244C111.637 50.0469 109.651 50.8638 107.382 50.8638C105.09 50.8638 103.105 50.0583 101.426 48.4244C99.7468 46.802 98.9072 44.8505 98.9072 42.5813C98.9072 40.3234 99.7468 38.3946 101.426 36.7835C103.105 35.1724 105.09 34.3668 107.382 34.3668ZM111.274 38.8485C110.173 37.8046 108.88 37.2827 107.382 37.2827C105.885 37.2827 104.58 37.8046 103.479 38.8485C102.368 39.8923 101.823 41.1403 101.823 42.5926C101.823 44.0676 102.379 45.3383 103.479 46.3822C104.591 47.426 105.885 47.9593 107.382 47.9593C108.88 47.9593 110.173 47.4373 111.274 46.3822C112.374 45.3383 112.919 44.0676 112.919 42.5926C112.919 41.129 112.374 39.8923 111.274 38.8485Z" fill="black"/>
<path d="M121.348 34.4576V44.6576C121.348 45.5767 121.655 46.3709 122.256 47.063C122.857 47.7551 123.776 48.0955 125.024 48.0955C126 48.0955 126.93 47.8572 127.838 47.392C128.745 46.9268 129.766 46.212 130.912 45.259V34.4463H133.828V50.7731H131.491L130.969 48.1181C128.598 49.9448 126.613 50.8639 125.024 50.8639C122.925 50.8639 121.303 50.2966 120.157 49.1733C119.011 48.0501 118.433 46.5411 118.433 44.6576V34.4576H121.348V34.4576Z" fill="black"/>
<path d="M139.659 50.7844H136.743V34.4576H139.08L139.545 36.931C140.498 36.1935 141.565 35.5808 142.733 35.093C143.913 34.6051 144.957 34.3668 145.865 34.3668C147.498 34.3668 148.849 34.9114 149.926 35.9893C151.004 37.0672 151.549 38.5989 151.549 40.5844V50.7844H148.633V40.4029C148.633 39.5065 148.338 38.7464 147.748 38.0996C147.158 37.4529 146.398 37.1352 145.49 37.1352C143.777 37.1352 141.837 37.9975 139.659 39.7334V50.7844V50.7844Z" fill="black"/>
<path d="M162.486 37.2827C160.966 37.2827 159.684 37.7706 158.64 38.7577C157.585 39.7448 157.063 41.0155 157.063 42.5926C157.063 44.1924 157.585 45.4745 158.617 46.4729C159.661 47.46 160.943 47.9593 162.475 47.9593C163.156 47.9593 163.802 47.8912 164.415 47.755C165.028 47.6189 165.515 47.46 165.89 47.2558C166.264 47.0629 166.582 46.8587 166.865 46.6545C167.149 46.4502 167.342 46.2914 167.467 46.1779L167.637 46.0078L169.475 48.311C169.373 48.4131 169.259 48.5152 169.112 48.6514C168.964 48.7762 168.669 48.9917 168.227 49.2754C167.784 49.5704 167.308 49.82 166.809 50.0356C166.31 50.2511 165.674 50.444 164.903 50.6142C164.131 50.7844 163.314 50.8752 162.486 50.8752C160.172 50.8752 158.209 50.0923 156.587 48.5266C154.964 46.9608 154.147 44.9866 154.147 42.5926C154.147 40.2213 154.964 38.2585 156.587 36.7041C158.209 35.1497 160.172 34.3668 162.486 34.3668C164.835 34.3668 166.854 34.9341 168.545 36.0574V39.0867H166.128L166.015 37.9748C164.903 37.521 163.723 37.2827 162.486 37.2827Z" fill="black"/>
<path d="M172.81 31.5303C172.447 31.2126 172.266 30.8155 172.266 30.3503C172.266 29.8852 172.447 29.488 172.81 29.159C173.173 28.83 173.604 28.6598 174.104 28.6598C174.614 28.6598 175.045 28.83 175.42 29.159C175.794 29.488 175.976 29.8852 175.976 30.3503C175.976 30.8155 175.794 31.2126 175.42 31.5303C175.045 31.848 174.614 32.0068 174.104 32.0068C173.604 32.0068 173.173 31.848 172.81 31.5303ZM175.567 34.4576V50.7844H172.651V34.4576H175.567Z" fill="black"/>
<path d="M181.988 27.9564V50.7845H179.072V28.5351L181.988 27.9564Z" fill="black"/>
</g>
<defs>
<clipPath id="clip0">
<rect width="266" height="51" fill="white"/>
</clipPath>
</defs>
</svg>
