<svg width="311" height="44" viewBox="0 0 311 44" fill="none" xmlns="http://www.w3.org/2000/svg">
<g clip-path="url(#clip0)">
<path d="M84.4698 16.6899V18.9899L83.4498 19.2499C82.7498 19.2499 82.1098 19.0499 81.5198 18.6499C80.9298 18.2499 80.4698 17.6799 80.1298 16.9499L77.6998 11.7899C77.3898 11.0399 76.9498 10.6699 76.3698 10.6699H70.8198V19.1799H68.2598V0.379883H70.8198V8.35988H75.9098C76.4898 8.35988 76.9198 8.01988 77.1898 7.33988L79.3598 2.68988C79.6998 1.95988 80.1598 1.38988 80.7498 0.989883C81.3398 0.589883 81.9798 0.389883 82.6798 0.389883L83.4498 0.649883V2.94988H82.6798C82.2498 2.94988 81.8998 3.27988 81.6098 3.94988L79.4898 8.59988C79.3198 8.91988 79.1098 9.14988 78.8498 9.28988C79.3798 9.58988 79.7598 9.99988 79.9998 10.5299L82.3798 15.6899C82.6698 16.3499 83.0298 16.6899 83.4498 16.6899H84.4698V16.6899Z" fill="black"/>
<path d="M93.4195 4.78003C95.4095 4.78003 97.1495 5.49003 98.6195 6.90003C100.089 8.32003 100.829 10.01 100.829 11.99C100.829 13.98 100.089 15.69 98.6195 17.12C97.1495 18.54 95.4095 19.25 93.4195 19.25C91.4095 19.25 89.6695 18.54 88.1895 17.12C86.7195 15.7 85.9795 13.99 85.9795 11.99C85.9795 10.01 86.7195 8.32003 88.1895 6.90003C89.6695 5.49003 91.4095 4.78003 93.4195 4.78003ZM96.8295 8.70003C95.8695 7.79003 94.7295 7.33003 93.4195 7.33003C92.1095 7.33003 90.9695 7.79003 89.9895 8.70003C89.0195 9.61003 88.5295 10.71 88.5295 11.98C88.5295 13.28 89.0195 14.38 89.9895 15.3C90.9595 16.22 92.0995 16.68 93.4195 16.68C94.7295 16.68 95.8695 16.22 96.8295 15.3C97.7895 14.38 98.2695 13.27 98.2695 11.98C98.2795 10.71 97.7895 9.62003 96.8295 8.70003Z" fill="black"/>
<path d="M109.75 4.78003C111.74 4.78003 113.48 5.49003 114.95 6.90003C116.42 8.32003 117.16 10.01 117.16 11.99C117.16 13.98 116.42 15.69 114.95 17.12C113.48 18.54 111.74 19.25 109.75 19.25C107.74 19.25 106 18.54 104.52 17.12C103.05 15.7 102.31 13.99 102.31 11.99C102.31 10.01 103.05 8.32003 104.52 6.90003C106 5.49003 107.74 4.78003 109.75 4.78003ZM113.17 8.70003C112.21 7.79003 111.07 7.33003 109.76 7.33003C108.45 7.33003 107.31 7.79003 106.33 8.70003C105.36 9.61003 104.87 10.71 104.87 11.98C104.87 13.28 105.36 14.38 106.33 15.3C107.3 16.22 108.44 16.68 109.76 16.68C111.07 16.68 112.21 16.22 113.17 15.3C114.13 14.38 114.61 13.27 114.61 11.98C114.61 10.71 114.13 9.62003 113.17 8.70003Z" fill="black"/>
<path d="M126.14 4.78003C127.91 4.78003 129.45 5.49003 130.74 6.91003C132.03 8.33003 132.68 10.03 132.68 12.01C132.68 14.04 131.99 15.75 130.61 17.15C129.23 18.55 127.48 19.25 125.37 19.25C124.24 19.25 123.03 18.93 121.74 18.28V24.72H119.18V4.86003H121.22L121.53 6.39003C122.21 5.93003 122.98 5.55003 123.84 5.24003C124.71 4.93003 125.48 4.78003 126.14 4.78003ZM125.63 7.34003C124.39 7.36003 123.09 7.83003 121.74 8.75003V15.52C122.97 16.3 124.26 16.7 125.63 16.7C126.91 16.7 127.98 16.25 128.84 15.34C129.7 14.44 130.13 13.33 130.13 12.02C130.13 10.73 129.7 9.62003 128.84 8.71003C127.98 7.79003 126.91 7.34003 125.63 7.34003Z" fill="black"/>
<path d="M136.649 6.90011V4.86011H148.459V16.8001H150.249V22.7601H147.949L147.689 19.1801H136.749L136.489 22.7601H134.189V16.8001H135.619C135.839 16.8001 136.059 16.6901 136.269 16.4801C136.479 16.2701 136.619 16.0101 136.689 15.7001L138.429 7.16011L136.649 6.90011ZM138.969 16.7901H145.899V7.16011H140.969L138.969 16.7901Z" fill="black"/>
<path d="M165.79 19.1701H163.23V7.23011H162.49L157.27 19.1701H152.8V4.86011H155.36V16.8001H155.87L161.14 4.86011H165.79V19.1701Z" fill="black"/>
<path d="M170.9 19.1701H168.34V4.86011H170.9V10.5401H178.77V4.86011H181.33V19.1801H178.77V12.9201H170.9V19.1701Z" fill="black"/>
<path d="M184.95 17.92C184.07 17.03 183.63 15.94 183.63 14.62C183.63 13.31 184.07 12.21 184.95 11.32C185.83 10.43 187.01 9.99003 188.49 9.99003C190.82 9.99003 192.68 10.33 194.06 11.01V10.12C194.06 9.18003 193.72 8.45003 193.04 7.93003C192.36 7.41003 191.52 7.15003 190.53 7.15003C189.1 7.15003 187.95 7.38003 187.08 7.84003L186.93 8.86003H184.89V6.36003C185.86 5.80003 186.75 5.39003 187.56 5.15003C188.37 4.90003 189.36 4.78003 190.54 4.78003C192.38 4.78003 193.86 5.27003 194.96 6.25003C196.07 7.23003 196.62 8.68003 196.62 10.61V19.17H194.57L194.16 17.05C193.31 17.73 192.44 18.27 191.57 18.66C190.69 19.05 189.67 19.25 188.49 19.25C187 19.25 185.82 18.81 184.95 17.92ZM186.11 14.62C186.11 15.25 186.36 15.8 186.86 16.27C187.36 16.74 188.07 16.97 188.99 16.97C190.68 16.97 192.36 16.16 194.05 14.54V13.29C192.65 12.61 190.88 12.27 188.73 12.27C187.83 12.27 187.16 12.5 186.74 12.95C186.32 13.4 186.11 13.96 186.11 14.62Z" fill="black"/>
<path d="M213.44 22.7501H211.14L210.89 19.1701H199.18V4.86011H201.74V16.8001H209.1V4.86011H211.66V16.8001H213.45V22.7501H213.44Z" fill="black"/>
<path d="M228.47 19.1701H225.91V7.23011H225.17L219.96 19.1701H215.49V4.86011H218.05V16.8001H218.56L223.83 4.86011H228.48V19.1701H228.47Z" fill="black"/>
<path d="M237.669 4.78003C239.659 4.78003 241.399 5.49003 242.869 6.90003C244.339 8.32003 245.079 10.01 245.079 11.99C245.079 13.98 244.339 15.69 242.869 17.12C241.399 18.54 239.659 19.25 237.669 19.25C235.659 19.25 233.919 18.54 232.439 17.12C230.969 15.7 230.229 13.99 230.229 11.99C230.229 10.01 230.969 8.32003 232.439 6.90003C233.919 5.49003 235.659 4.78003 237.669 4.78003ZM241.079 8.70003C240.119 7.79003 238.979 7.33003 237.669 7.33003C236.359 7.33003 235.22 7.79003 234.24 8.70003C233.27 9.61003 232.779 10.71 232.779 11.98C232.779 13.28 233.27 14.38 234.24 15.3C235.21 16.22 236.349 16.68 237.669 16.68C238.979 16.68 240.119 16.22 241.079 15.3C242.039 14.38 242.52 13.27 242.52 11.98C242.53 10.71 242.039 9.62003 241.079 8.70003Z" fill="black"/>
<path d="M249.66 19.1701H247.1V4.86011H249.66V10.5401H257.53V4.86011H260.09V19.1801H257.53V12.9201H249.66V19.1701V19.1701Z" fill="black"/>
<path d="M265.2 19.1701H262.64V4.86011H265.2V10.5401H273.07V4.86011H275.63V19.1801H273.07V12.9201H265.2V19.1701Z" fill="black"/>
<path d="M278.189 19.1701V4.86011H280.749V10.0201H285.939C287.199 10.0201 288.279 10.4601 289.189 11.3501C290.089 12.2401 290.539 13.3101 290.539 14.5701C290.539 15.8501 290.089 16.9301 289.189 17.8301C288.289 18.7201 287.199 19.1701 285.939 19.1701H278.189V19.1701ZM280.739 16.6901H285.929C286.529 16.6901 287.029 16.4801 287.439 16.0601C287.849 15.6401 288.049 15.1401 288.049 14.5601C288.049 13.9801 287.849 13.4901 287.439 13.0901C287.029 12.6901 286.529 12.4901 285.929 12.4901H280.739V16.6901ZM292.239 19.1701V4.86011H294.799V19.1801H292.239V19.1701Z" fill="black"/>
<path d="M310.34 19.17H307.78V7.41H306.96L301.85 19.17H297.35V4.86H299.91V16.62H300.5L305.66 4.86H310.34V19.17ZM305.87 0H307.76C307.76 0.95 307.39 1.74 306.66 2.36C305.93 2.98 304.99 3.29 303.85 3.29C302.71 3.29 301.77 2.98 301.04 2.36C300.31 1.74 299.94 0.95 299.94 0H301.81C301.84 0.55 302.02 0.94 302.35 1.19C302.67 1.44 303.18 1.56 303.86 1.56C304.54 1.56 305.04 1.44 305.36 1.2C305.66 0.96 305.84 0.56 305.87 0Z" fill="black"/>
<path d="M81.9398 29.73L81.6298 28.09C80.6198 27.6 79.3499 27.35 77.7999 27.35C75.9399 27.35 74.2898 28.01 72.8298 29.33C71.3698 30.65 70.6398 32.3 70.6398 34.28C70.6398 36.26 71.3698 37.91 72.8298 39.23C74.2898 40.55 75.9399 41.21 77.7999 41.21C80.0699 41.21 81.9198 40.35 83.3498 38.63L85.1698 40.44C84.2498 41.48 83.1498 42.29 81.8598 42.88C80.5698 43.47 79.2198 43.76 77.8098 43.76C75.1898 43.76 72.9099 42.83 70.9799 40.97C69.0499 39.11 68.0898 36.88 68.0898 34.27C68.0898 31.66 69.0499 29.43 70.9799 27.57C72.9099 25.71 75.1798 24.78 77.8098 24.78C80.1098 24.78 82.2398 25.39 84.1998 26.62V29.71H81.9398V29.73Z" fill="black"/>
<path d="M94.6998 29.29C96.6898 29.29 98.4298 30 99.8998 31.41C101.37 32.82 102.11 34.52 102.11 36.5C102.11 38.49 101.37 40.2 99.8998 41.63C98.4298 43.05 96.6898 43.76 94.6998 43.76C92.6898 43.76 90.9498 43.05 89.4698 41.63C87.9998 40.2 87.2598 38.5 87.2598 36.5C87.2598 34.52 87.9998 32.83 89.4698 31.41C90.9398 30 92.6898 29.29 94.6998 29.29ZM98.1098 33.22C97.1498 32.31 96.0098 31.85 94.6998 31.85C93.3898 31.85 92.2498 32.31 91.2698 33.22C90.2998 34.13 89.8098 35.23 89.8098 36.5C89.8098 37.8 90.2998 38.9 91.2698 39.82C92.2398 40.74 93.3798 41.2 94.6998 41.2C96.0098 41.2 97.1498 40.74 98.1098 39.82C99.0698 38.9 99.5498 37.79 99.5498 36.5C99.5598 35.22 99.0698 34.13 98.1098 33.22Z" fill="black"/>
<path d="M116.99 39.3401C116.99 40.5301 116.57 41.5601 115.72 42.4101C114.88 43.2601 113.85 43.6901 112.64 43.6901H104.13V29.3701H112.13C113.27 29.3701 114.24 29.7701 115.04 30.5601C115.84 31.3501 116.24 32.3101 116.24 33.4401C116.24 33.9001 116.12 34.3801 115.87 34.8701C115.62 35.3601 115.29 35.7201 114.86 35.9401C115.42 36.1801 115.92 36.6301 116.34 37.2901C116.78 37.9601 116.99 38.6401 116.99 39.3401ZM112.13 31.8501H106.69V35.0201H112.44C112.76 34.9901 113.05 34.8201 113.31 34.5201C113.57 34.2201 113.69 33.8601 113.69 33.4301C113.69 33.0001 113.54 32.6301 113.23 32.3201C112.92 32.0101 112.56 31.8501 112.13 31.8501ZM112.64 37.5001H106.68V41.2101H112.64C113.13 41.2101 113.56 41.0201 113.91 40.6501C114.26 40.2801 114.43 39.8401 114.43 39.3501C114.43 38.8601 114.26 38.4301 113.91 38.0601C113.56 37.6801 113.14 37.5001 112.64 37.5001Z" fill="black"/>
<path d="M126.45 41.28C128.21 41.28 129.59 40.68 130.59 39.49L132.15 41.46C132.01 41.63 131.83 41.81 131.61 42C131.39 42.19 131.05 42.43 130.59 42.74C130.13 43.05 129.54 43.29 128.81 43.48C128.09 43.67 127.3 43.76 126.45 43.76C124.46 43.76 122.76 43.06 121.36 41.66C119.96 40.26 119.26 38.54 119.26 36.5C119.26 34.51 119.95 32.81 121.33 31.4C122.71 29.99 124.4 29.29 126.39 29.29C128.32 29.29 129.95 29.98 131.3 31.37C132.65 32.76 133.32 34.47 133.32 36.49C133.32 36.86 133.3 37.17 133.27 37.41H121.9C122.14 38.52 122.68 39.44 123.52 40.17C124.36 40.92 125.34 41.28 126.45 41.28ZM126.4 31.85C125.34 31.85 124.41 32.15 123.6 32.74C122.79 33.34 122.26 34.1 122 35.04H130.54C130.39 34.17 129.91 33.42 129.12 32.79C128.33 32.16 127.42 31.85 126.4 31.85Z" fill="black"/>
<path d="M142.68 43.6801H140.12V31.7501H135.01V29.3701H147.79V31.7501H142.68V43.6801V43.6801Z" fill="black"/>
<path d="M19.33 5.03979L53.45 17.3398L42.16 22.3798L8.04004 10.0798L19.33 5.03979Z" fill="#AD1A27"/>
<path d="M15.3103 21.98L49.4303 34.28L38.1503 39.32L4.03027 27.02L15.3103 21.98Z" fill="#AD1A27"/>
<path d="M53.4095 10.0899H8.01953L12.0695 0.379883H57.4495L53.4095 10.0899Z" fill="#ED1C24"/>
<path d="M49.4203 27.0298H4.03027L8.07027 17.3298H53.4603L49.4203 27.0298Z" fill="#ED1C24"/>
<path d="M45.39 43.9798H0L4.04 34.2698H49.43L45.39 43.9798Z" fill="#ED1C24"/>
</g>
<defs>
<clipPath id="clip0">
<rect width="310.34" height="43.98" fill="white"/>
</clipPath>
</defs>
</svg>
