<svg width="343" height="57" viewBox="0 0 343 57" fill="none" xmlns="http://www.w3.org/2000/svg">
<path d="M22.4456 5.73706L62.065 19.9929L48.9553 25.8343L9.33594 11.5669L22.4456 5.73706Z" fill="#AD1A27"/>
<path d="M17.7778 25.3706L57.3971 39.6264L44.299 45.4562L4.67969 31.2004L17.7778 25.3706Z" fill="#AD1A27"/>
<path d="M62.0183 11.5784H9.3125L14.0153 0.33606H66.7095L62.0183 11.5784Z" fill="#ED1C24"/>
<path d="M57.3855 31.2236H4.67969L9.37084 19.9696H62.0767L57.3855 31.2236Z" fill="#ED1C24"/>
<path d="M52.7058 50.8572H0L4.69115 39.6149H57.397L52.7058 50.8572Z" fill="#ED1C24"/>
<path d="M98.0143 19.3207V21.9864L96.8299 22.2877C96.0171 22.2877 95.2739 22.0559 94.5888 21.5923C93.9037 21.1287 93.3696 20.4681 92.9748 19.622L90.1531 13.6415C89.7932 12.7723 89.2822 12.3434 88.6088 12.3434H82.1758V22.195H79.2148V0.44043H82.1758V9.67772H88.0746C88.7481 9.67772 89.2358 9.28366 89.5609 8.49553L92.0807 3.10615C92.4755 2.26007 93.0096 1.59944 93.6947 1.13583C94.3798 0.672231 95.123 0.44043 95.9358 0.44043L96.8299 0.741772V3.40749H95.9358C95.4365 3.40749 95.0301 3.78996 94.6933 4.5665L92.2316 9.95588C92.0342 10.3268 91.7904 10.5933 91.4885 10.7556C92.1039 11.1149 92.5452 11.5901 92.8238 12.2044L95.5758 18.1848C95.9126 18.9498 96.3306 19.3438 96.8183 19.3438H98.0143V19.3207Z" fill="black"/>
<path d="M101.916 20.7462C100.894 19.7263 100.395 18.4514 100.395 16.9331C100.395 15.4148 100.905 14.1399 101.916 13.12C102.926 12.1 104.308 11.5785 106.026 11.5785C108.732 11.5785 110.892 11.9725 112.494 12.7607V11.7291C112.494 10.6397 112.099 9.80519 111.31 9.20251C110.52 8.59983 109.545 8.29848 108.407 8.29848C106.746 8.29848 105.411 8.56506 104.401 9.0982L104.226 10.2804H101.858V7.38287C102.984 6.73382 104.017 6.25863 104.958 5.98047C105.899 5.69072 107.048 5.55164 108.407 5.55164C110.543 5.55164 112.25 6.11955 113.539 7.25538C114.828 8.39121 115.467 10.0718 115.467 12.2971V22.2066H113.098L112.622 19.7495C111.635 20.5376 110.625 21.1635 109.614 21.6155C108.604 22.0675 107.408 22.2993 106.038 22.2993C104.308 22.2877 102.938 21.7777 101.916 20.7462ZM103.263 16.9331C103.263 17.6633 103.553 18.3007 104.134 18.8455C104.714 19.3902 105.539 19.6568 106.607 19.6568C108.569 19.6568 110.52 18.718 112.482 16.8404V15.3916C110.857 14.6035 108.801 14.2094 106.317 14.2094C105.271 14.2094 104.493 14.476 104.006 14.9975C103.518 15.5191 103.263 16.1566 103.263 16.9331Z" fill="black"/>
<path d="M119.949 20.7462C118.927 19.7263 118.428 18.4514 118.428 16.9331C118.428 15.4148 118.939 14.1399 119.949 13.12C120.959 12.1 122.341 11.5785 124.059 11.5785C126.765 11.5785 128.925 11.9725 130.527 12.7607V11.7291C130.527 10.6397 130.132 9.80519 129.343 9.20251C128.553 8.59983 127.578 8.29848 126.44 8.29848C124.779 8.29848 123.444 8.56506 122.434 9.0982L122.26 10.2804H119.891V7.38287C121.017 6.73382 122.051 6.25863 122.991 5.98047C123.932 5.69072 125.081 5.55164 126.44 5.55164C128.576 5.55164 130.283 6.11955 131.572 7.25538C132.861 8.39121 133.5 10.0718 133.5 12.2971V22.2066H131.131L130.655 19.7495C129.668 20.5376 128.658 21.1635 127.647 21.6155C126.637 22.0675 125.441 22.2993 124.071 22.2993C122.329 22.2877 120.959 21.7777 119.949 20.7462ZM121.296 16.9331C121.296 17.6633 121.586 18.3007 122.167 18.8455C122.747 19.3902 123.572 19.6568 124.64 19.6568C126.602 19.6568 128.553 18.718 130.516 16.8404V15.3916C128.89 14.6035 126.835 14.2094 124.35 14.2094C123.305 14.2094 122.527 14.476 122.039 14.9975C121.54 15.5191 121.296 16.1566 121.296 16.9331Z" fill="black"/>
<path d="M144.508 5.52844C146.563 5.52844 148.34 6.35134 149.849 7.99713C151.347 9.64292 152.102 11.6132 152.102 13.8965C152.102 16.2493 151.301 18.2312 149.698 19.8422C148.096 21.4648 146.075 22.2645 143.625 22.2645C142.325 22.2645 140.92 21.8936 139.41 21.1403V28.6043H136.449V5.62116H138.818L139.178 7.39445C139.968 6.8613 140.862 6.42088 141.86 6.06159C142.859 5.71388 143.741 5.52844 144.508 5.52844ZM143.916 8.4955C142.476 8.51868 140.966 9.06342 139.41 10.1181V17.9646C140.838 18.8686 142.336 19.3206 143.916 19.3206C145.402 19.3206 146.633 18.7991 147.631 17.756C148.63 16.7129 149.129 15.4264 149.129 13.9081C149.129 12.4129 148.63 11.1264 147.631 10.0718C146.644 9.01706 145.402 8.4955 143.916 8.4955Z" fill="black"/>
<path d="M156.7 7.98559V5.62122H170.402V19.4482H172.481V26.3443H169.81L169.508 22.195H156.816L156.514 26.3443H153.844V19.4482H155.504C155.76 19.4482 156.015 19.3207 156.259 19.0773C156.503 18.8339 156.665 18.5326 156.747 18.1733L158.767 8.28693L156.7 7.98559ZM159.394 19.4482H167.43V8.28693H161.705L159.394 19.4482Z" fill="black"/>
<path d="M175.441 22.195V5.62122H178.402V11.6017H184.417C185.88 11.6017 187.134 12.1117 188.18 13.1432C189.225 14.1747 189.747 15.4148 189.747 16.8752C189.747 18.3587 189.225 19.6104 188.18 20.6535C187.134 21.6851 185.88 22.2066 184.417 22.2066H175.441V22.195ZM178.402 19.3207H184.417C185.114 19.3207 185.695 19.0773 186.171 18.5905C186.647 18.1037 186.879 17.5242 186.879 16.8636C186.879 16.1914 186.635 15.6235 186.171 15.1598C185.695 14.6962 185.114 14.4644 184.417 14.4644H178.402V19.3207ZM191.744 22.195V5.62122H194.705V22.195H191.744Z" fill="black"/>
<path d="M200.64 22.195H197.679V5.62122H200.64V12.1928H209.778V5.62122H212.739V22.195H209.778V14.9512H200.64V22.195Z" fill="black"/>
<path d="M216.93 20.7462C215.908 19.7263 215.397 18.4514 215.397 16.9331C215.397 15.4148 215.908 14.1399 216.93 13.12C217.952 12.1 219.322 11.5785 221.041 11.5785C223.746 11.5785 225.906 11.9725 227.509 12.7607V11.7291C227.509 10.6397 227.114 9.80519 226.324 9.20251C225.535 8.59983 224.559 8.29848 223.421 8.29848C221.761 8.29848 220.425 8.56506 219.415 9.0982L219.241 10.2804H216.872V7.38287C217.999 6.73382 219.032 6.25863 219.973 5.98047C220.913 5.70231 222.063 5.55164 223.433 5.55164C225.569 5.55164 227.276 6.11955 228.565 7.25538C229.854 8.39121 230.493 10.0718 230.493 12.2971V22.2066H228.124L227.648 19.7495C226.661 20.5376 225.651 21.1635 224.64 21.6155C223.619 22.0675 222.434 22.2993 221.064 22.2993C219.322 22.2877 217.952 21.7777 216.93 20.7462ZM218.277 16.9331C218.277 17.6633 218.567 18.3007 219.148 18.8455C219.729 19.3902 220.553 19.6568 221.621 19.6568C223.584 19.6568 225.535 18.718 227.497 16.8404V15.3916C225.871 14.6035 223.816 14.2094 221.331 14.2094C220.286 14.2094 219.508 14.476 219.02 14.9975C218.533 15.5191 218.277 16.1566 218.277 16.9331Z" fill="black"/>
<path d="M249.977 26.3443H247.307L247.016 22.195H233.431V5.62122H236.392V19.4482H244.926V5.62122H247.887V19.4482H249.966V26.3443H249.977Z" fill="black"/>
<path d="M252.347 22.195V5.62122H255.308V11.6017H261.323C262.786 11.6017 264.04 12.1117 265.085 13.1432C266.13 14.1747 266.652 15.4148 266.652 16.8752C266.652 18.3587 266.13 19.6104 265.085 20.6535C264.04 21.6851 262.786 22.2066 261.323 22.2066H252.347V22.195ZM255.319 19.3207H261.334C262.031 19.3207 262.611 19.0773 263.088 18.5905C263.564 18.1037 263.796 17.5242 263.796 16.8636C263.796 16.1914 263.564 15.6235 263.088 15.1598C262.611 14.6962 262.031 14.4644 261.334 14.4644H255.319V19.3207ZM268.661 22.195V5.62122H271.622V22.195H268.661Z" fill="black"/>
<path d="M289.655 22.195H286.694V8.58825H285.742L279.808 22.2066H274.583V5.62119H277.544V19.2395H278.229L284.221 5.62119H289.643V22.195H289.655ZM284.465 0H286.659C286.659 1.10106 286.23 2.01667 285.382 2.73526C284.534 3.45384 283.443 3.81314 282.119 3.81314C280.795 3.81314 279.704 3.45384 278.856 2.73526C278.008 2.01667 277.579 1.10106 277.579 0H279.739C279.773 0.625864 279.982 1.08947 280.366 1.37922C280.737 1.66897 281.329 1.80805 282.119 1.80805C282.909 1.80805 283.489 1.66897 283.849 1.39081C284.221 1.11265 284.43 0.649044 284.465 0Z" fill="black"/>
<path d="M295.589 22.195H292.616V5.62122H295.577V12.1928H304.716V5.62122H307.677V22.195H304.716V14.9512H295.577V22.195H295.589Z" fill="black"/>
<path d="M311.88 20.7462C310.859 19.7263 310.348 18.4514 310.348 16.9331C310.348 15.4148 310.859 14.1399 311.88 13.12C312.902 12.1 314.272 11.5785 315.991 11.5785C318.697 11.5785 320.856 11.9725 322.459 12.7607V11.7291C322.459 10.6397 322.064 9.80519 321.274 9.20251C320.485 8.59983 319.509 8.29848 318.371 8.29848C316.711 8.29848 315.376 8.56506 314.365 9.0982L314.191 10.2804H311.822V7.38287C312.949 6.73382 313.982 6.25863 314.923 5.98047C315.863 5.70231 317.013 5.55164 318.383 5.55164C320.52 5.55164 322.226 6.11955 323.515 7.25538C324.804 8.39121 325.443 10.0718 325.443 12.2971V22.2066H323.074L322.598 19.7495C321.611 20.5376 320.601 21.1635 319.591 21.6155C318.569 22.0675 317.384 22.2993 316.014 22.2993C314.261 22.2877 312.902 21.7777 311.88 20.7462ZM313.227 16.9331C313.227 17.6633 313.518 18.3007 314.098 18.8455C314.679 19.3902 315.503 19.6568 316.572 19.6568C318.534 19.6568 320.485 18.718 322.447 16.8404V15.3916C320.821 14.6035 318.766 14.2094 316.281 14.2094C315.236 14.2094 314.458 14.476 313.971 14.9975C313.471 15.5191 313.227 16.1566 313.227 16.9331Z" fill="black"/>
<path d="M330.192 22.2877L328.741 21.9864V19.3207H330.192C330.587 19.3207 330.877 19.1121 331.051 18.6948L332.294 16.0059C331.144 15.7046 330.204 15.0903 329.472 14.1399C328.741 13.1895 328.369 12.1117 328.369 10.8831C328.369 9.44594 328.88 8.2058 329.913 7.17429C330.935 6.14277 332.178 5.62122 333.618 5.62122H342.988V22.195H340.027V16.1914H335.522L333.594 20.2479C333.293 20.8853 332.84 21.3837 332.236 21.743C331.62 22.1023 330.935 22.2877 330.192 22.2877ZM331.342 10.8947C331.342 11.5437 331.562 12.1001 332.015 12.5521C332.456 13.0041 333.002 13.2359 333.629 13.2359H340.039V8.58828H333.699C333.072 8.58828 332.515 8.82008 332.05 9.27209C331.574 9.71251 331.342 10.2572 331.342 10.8947Z" fill="black"/>
<path d="M86.9834 33.9126C89.0387 33.9126 90.8153 34.7355 92.3248 36.3813C93.8227 38.0271 94.5775 39.9974 94.5775 42.2806C94.5775 44.6334 93.7762 46.6153 92.1738 48.2263C90.5714 49.849 88.551 50.6487 86.1009 50.6487C84.8004 50.6487 83.3953 50.2778 81.8858 49.5244V56.9769H78.9248V34.0053H81.2936L81.6536 35.7786C82.4432 35.2455 83.3373 34.805 84.3359 34.4457C85.3345 34.098 86.217 33.9126 86.9834 33.9126ZM86.3912 36.8797C84.9513 36.9028 83.4418 37.4476 81.8858 38.5023V46.3488C83.314 47.2528 84.812 47.7048 86.3912 47.7048C87.8775 47.7048 89.1083 47.1832 90.1069 46.1401C91.1055 45.097 91.6049 43.8105 91.6049 42.2922C91.6049 40.7971 91.1055 39.5106 90.1069 38.4559C89.1199 37.4012 87.8775 36.8797 86.3912 36.8797Z" fill="black"/>
<path d="M98.444 49.1304C97.4222 48.0989 96.9229 46.8355 96.9229 45.3172C96.9229 43.7989 97.4338 42.524 98.444 41.5041C99.4658 40.4842 100.836 39.9626 102.555 39.9626C105.26 39.9626 107.42 40.3567 109.022 41.1448V40.1017C109.022 39.0122 108.628 38.1778 107.838 37.5751C107.048 36.9724 106.073 36.671 104.935 36.671C103.274 36.671 101.939 36.9376 100.929 37.4708L100.755 38.6529H98.3859V35.7554C99.5123 35.1064 100.546 34.6312 101.486 34.353C102.427 34.0633 103.576 33.9242 104.935 33.9242C107.072 33.9242 108.778 34.4921 110.067 35.6279C111.356 36.7638 111.995 38.4443 111.995 40.6696V50.5791H109.615L109.138 48.122C108.151 48.9102 107.141 49.536 106.131 49.988C105.121 50.4401 103.925 50.6719 102.555 50.6719C100.836 50.6719 99.4658 50.1503 98.444 49.1304ZM99.791 45.3057C99.791 46.0358 100.081 46.6733 100.662 47.218C101.242 47.7628 102.067 48.0293 103.135 48.0293C105.098 48.0293 107.048 47.0905 109.011 45.2129V43.7642C107.385 42.976 105.33 42.582 102.845 42.582C101.8 42.582 101.022 42.8486 100.534 43.3701C100.046 43.8917 99.791 44.5407 99.791 45.3057Z" fill="black"/>
<path d="M117.499 36.3696V34.0052H131.201V47.8206H133.279V54.7167H130.609L130.307 50.5675H117.615L117.313 54.7167H114.643V47.8206H116.303C116.559 47.8206 116.814 47.6931 117.058 47.4497C117.302 47.2063 117.464 46.905 117.546 46.5457L119.566 36.6594L117.499 36.3696ZM120.193 47.8206H128.228V36.6594H122.504L120.193 47.8206Z" fill="black"/>
<path d="M137.471 49.1304C136.449 48.0989 135.95 46.8355 135.95 45.3172C135.95 43.7989 136.461 42.524 137.471 41.5041C138.493 40.4842 139.863 39.9626 141.582 39.9626C144.287 39.9626 146.447 40.3567 148.05 41.1448V40.1017C148.05 39.0122 147.655 38.1778 146.865 37.5751C146.076 36.9724 145.1 36.671 143.962 36.671C142.302 36.671 140.966 36.9376 139.956 37.4708L139.782 38.6529H137.413V35.7554C138.54 35.1064 139.573 34.6312 140.514 34.353C141.454 34.0633 142.604 33.9242 143.962 33.9242C146.099 33.9242 147.806 34.4921 149.095 35.6279C150.384 36.7638 151.022 38.4443 151.022 40.6696V50.5791H148.63L148.154 48.122C147.167 48.9102 146.157 49.536 145.147 49.988C144.136 50.4401 142.94 50.6719 141.57 50.6719C139.852 50.6719 138.482 50.1503 137.471 49.1304ZM138.818 45.3057C138.818 46.0358 139.109 46.6733 139.689 47.218C140.27 47.7628 141.094 48.0293 142.162 48.0293C144.125 48.0293 146.076 47.0905 148.038 45.2129V43.7642C146.412 42.976 144.357 42.582 141.872 42.582C140.827 42.582 140.049 42.8486 139.561 43.3701C139.062 43.8917 138.818 44.5407 138.818 45.3057Z" fill="black"/>
</svg>
