<svg height="496pt" viewBox="-16 0 496 496" width="496pt" xmlns="http://www.w3.org/2000/svg"><path d="m361.425781 152.183594 100.40625-106.695313c2.191407-2.324219 2.789063-5.730469 1.523438-8.664062-1.269531-2.933594-4.160157-4.828125-7.355469-4.824219h-352v-24c0-4.417969-3.582031-8-8-8h-48c-4.417969 0-8 3.582031-8 8v424h-16c-13.253906 0-24 10.746094-24 24v32c0 4.417969 3.582031 8 8 8h128c4.417969 0 8-3.582031 8-8v-32c0-13.253906-10.746094-24-24-24h-16v-152h352c3.140625 0 5.992188-1.839844 7.285156-4.703125 1.296875-2.863281.796875-6.214844-1.277344-8.578125zm-233.425781 303.816406v24h-112v-24c0-4.417969 3.582031-8 8-8h96c4.417969 0 8 3.582031 8 8zm-72-24v-416h32v416zm48-168v-216h333.488281l-92.6875 98.511719c-2.832031 3.003906-2.910156 7.667969-.183593 10.769531l93.710937 106.71875zm0 0"/><path d="m160 240h-32v-176c0-4.417969-3.582031-8-8-8s-8 3.582031-8 8v184c0 4.417969 3.582031 8 8 8h40c4.417969 0 8-3.582031 8-8s-3.582031-8-8-8zm0 0"/><path d="m224 240h-40c-4.417969 0-8 3.582031-8 8s3.582031 8 8 8h40c4.417969 0 8-3.582031 8-8s-3.582031-8-8-8zm0 0"/></svg>