<?xml version="1.0"?>
<svg xmlns="http://www.w3.org/2000/svg" viewBox="0 0 512 512" width="512" height="512"><g id="Bus"><path d="M501.566,153.254l-32-31A8,8,0,0,0,464,120H32A24.027,24.027,0,0,0,8,144V368a24.027,24.027,0,0,0,24,24H48.679a47.866,47.866,0,0,0,11.582,24H15a8,8,0,0,0,0,16H464a8,8,0,0,0,0-16H451.739a47.866,47.866,0,0,0,11.582-24H480a24.027,24.027,0,0,0,24-24V159A8,8,0,0,0,501.566,153.254ZM24,184h96v56H24Zm112,0H248v56H136Zm128,0H376v56H264Zm128,56V184h96v88H426.806l-35.622-28.5A7.942,7.942,0,0,0,392,240ZM32,136H460.76L488,162.388V168H24V144A8.009,8.009,0,0,1,32,136ZM64,384a32,32,0,1,1,32,32A32.036,32.036,0,0,1,64,384Zm304.679,8a47.866,47.866,0,0,0,11.582,24H131.739a47.866,47.866,0,0,0,11.582-24ZM384,384a32,32,0,1,1,32,32A32.036,32.036,0,0,1,384,384Zm104-16a8.009,8.009,0,0,1-8,8H463.321a47.991,47.991,0,0,0-94.642,0H143.321a47.991,47.991,0,0,0-94.642,0H32a8.009,8.009,0,0,1-8-8v-8h8a8,8,0,0,0,0-16H24V256H381.194L419,286.247A8,8,0,0,0,424,288h64v56h-8a8,8,0,0,0,0,16h8Z"/><path d="M352,344H160a8,8,0,0,0,0,16H352a8,8,0,0,0,0-16Z"/><path d="M160,336h80a8,8,0,0,0,8-8V288a8,8,0,0,0-8-8H160a8,8,0,0,0-8,8v40A8,8,0,0,0,160,336Zm8-40h64v24H168Z"/><path d="M496,416h-8a8,8,0,0,0,0,16h8a8,8,0,0,0,0-16Z"/></g></svg>
