<?xml version="1.0" encoding="iso-8859-1"?>
<!-- Generator: Adobe Illustrator 19.0.0, SVG Export Plug-In . SVG Version: 6.00 Build 0)  -->
<svg version="1.1" id="Layer_1" xmlns="http://www.w3.org/2000/svg" xmlns:xlink="http://www.w3.org/1999/xlink" x="0px" y="0px"
	 viewBox="0 0 511.994 511.994" style="enable-background:new 0 0 511.994 511.994;" xml:space="preserve">
<g>
	<g>
		<path d="M260.638,210.535c-4.197,0-7.599,3.402-7.599,7.599v32.341c0,4.197,3.402,7.599,7.599,7.599
			c4.197,0,7.599-3.402,7.599-7.599v-32.341C268.238,213.937,264.835,210.535,260.638,210.535z"/>
	</g>
</g>
<g>
	<g>
		<path d="M505.085,195.571c-1.725-3.826-6.227-5.528-10.051-3.803c-3.826,1.726-5.528,6.226-3.802,10.052
			c3.696,8.194,5.571,16.95,5.571,26.023v80.631c0,10.158-6.552,18.809-15.649,21.966V218.133c0-4.197-3.403-7.599-7.599-7.599
			c-4.197,0-7.599,3.402-7.599,7.599v227.038H441.03V227.845c0-20.984-8.172-40.713-23.012-55.553
			c-1.554-1.552-3.172-3.014-4.829-4.42c6.433-2.212,13.213-3.368,20.05-3.389h0.192c16.922,0,32.838,6.591,44.816,18.56
			c1.483,1.482,3.428,2.224,5.371,2.224c1.945,0,3.892-0.743,5.375-2.228c2.967-2.969,2.965-7.781-0.004-10.747
			c-7.293-7.287-15.768-12.955-24.987-16.848c15.539-10.063,25.852-27.541,25.852-47.395c0-31.113-25.312-56.425-56.425-56.425
			c-7.88,0-15.509,1.595-22.671,4.741c-3.842,1.688-5.59,6.171-3.902,10.014c1.687,3.842,6.17,5.59,10.013,3.902
			c5.225-2.295,10.797-3.458,16.561-3.458c22.732,0,41.226,18.494,41.226,41.226c0,22.737-18.494,41.236-41.226,41.236h-0.164
			c-9.16-0.033-17.796-3.011-24.901-8.484c6.61-9.243,10.518-20.546,10.518-32.751c0-31.113-25.312-56.425-56.425-56.425
			c-6.678,0-13.218,1.157-19.438,3.439c-3.941,1.446-5.962,5.812-4.517,9.753c1.446,3.941,5.811,5.962,9.753,4.517
			c4.537-1.665,9.316-2.509,14.203-2.509c22.732,0,41.226,18.494,41.226,41.226c0,22.737-18.494,41.236-41.226,41.236h-0.164
			c-9.16-0.033-17.796-3.011-24.901-8.484c6.61-9.243,10.518-20.546,10.518-32.751c0-31.113-25.312-56.425-56.425-56.425
			c-7.197,0-14.21,1.339-20.845,3.977c-3.9,1.551-5.804,5.97-4.253,9.87c1.55,3.9,5.968,5.805,9.87,4.253
			c4.839-1.925,9.962-2.901,15.227-2.901c22.732,0,41.226,18.494,41.226,41.226c0,22.737-18.494,41.236-41.226,41.236h-0.164
			c-9.16-0.033-17.796-3.011-24.901-8.484c6.61-9.243,10.518-20.546,10.518-32.751c0-31.113-25.312-56.425-56.425-56.425
			c-6.453,0-12.786,1.082-18.821,3.218c-3.957,1.399-6.03,5.742-4.631,9.699s5.741,6.028,9.699,4.631
			c4.404-1.557,9.031-2.348,13.753-2.348c22.732,0,41.226,18.494,41.226,41.226c0,22.737-18.494,41.236-41.226,41.236h-0.164
			c-9.16-0.033-17.796-3.011-24.901-8.484c6.61-9.243,10.518-20.546,10.518-32.751c0-31.113-25.312-56.425-56.425-56.425
			c-7.895,0-15.536,1.601-22.711,4.758c-3.841,1.69-5.585,6.175-3.895,10.016c1.69,3.842,6.177,5.585,10.017,3.895
			c5.233-2.303,10.814-3.471,16.589-3.471c22.732,0,41.226,18.494,41.226,41.226c0,22.737-18.494,41.236-41.226,41.236h-0.164
			c-9.16-0.033-17.796-3.011-24.902-8.485c6.611-9.242,10.52-20.544,10.52-32.748c0-31.114-25.313-56.427-56.427-56.427
			S22.143,76.937,22.143,108.05c0,19.905,10.37,37.422,25.98,47.47C19.885,167.612,0,195.976,0,228.909v79.566
			c0,18.598,13.276,34.152,30.848,37.69v106.607c0,4.197,3.403,7.599,7.599,7.599h80.244c0.007,0,0.013-0.001,0.019-0.001h30.812
			c0.007,0,0.013,0.001,0.019,0.001c0.006,0,0.013-0.001,0.019-0.001h30.828h9.276h30.827c0.007,0,0.013,0.001,0.019,0.001
			s0.013-0.001,0.019-0.001h30.828h9.276h30.828c0.007,0,0.013,0.001,0.019,0.001c0.006,0,0.013-0.001,0.019-0.001h30.827h9.276
			h30.828c0.007,0,0.013,0.001,0.019,0.001c0.006,0,0.013-0.001,0.019-0.001H393.3h9.276h30.828c0.007,0,0.013,0.001,0.019,0.001
			s0.013-0.001,0.019-0.001h40.104c4.197,0,7.599-3.403,7.599-7.599V346.165c17.572-3.537,30.847-19.091,30.847-37.689v-80.631
			C512,216.602,509.674,205.743,505.085,195.571z M397.917,151.902c1.613,1.314,3.284,2.534,5.014,3.651
			c-1.631,0.698-3.239,1.455-4.822,2.266c-1.667-0.85-3.357-1.65-5.078-2.376C394.722,154.347,396.356,153.167,397.917,151.902z
			 M326.946,151.902c1.613,1.314,3.284,2.534,5.014,3.651c-1.631,0.698-3.239,1.455-4.822,2.266c-1.667-0.85-3.357-1.65-5.078-2.376
			C323.751,154.347,325.384,153.167,326.946,151.902z M255.974,151.902c1.613,1.314,3.284,2.534,5.014,3.651
			c-1.631,0.698-3.239,1.455-4.822,2.266c-1.667-0.85-3.357-1.65-5.078-2.376C252.779,154.347,254.413,153.167,255.974,151.902z
			 M185.003,151.902c1.613,1.314,3.284,2.534,5.014,3.651c-1.631,0.698-3.239,1.455-4.822,2.266c-1.667-0.85-3.357-1.65-5.078-2.376
			C181.808,154.347,183.441,153.167,185.003,151.902z M37.341,108.05c0-22.733,18.495-41.228,41.228-41.228
			s41.228,18.495,41.228,41.228s-18.495,41.229-41.228,41.229S37.341,130.784,37.341,108.05z M119.045,155.554
			c-1.633,0.699-3.243,1.457-4.828,2.269c-1.669-0.851-3.362-1.649-5.085-2.375c1.696-1.097,3.333-2.278,4.897-3.546
			C115.642,153.215,117.314,154.436,119.045,155.554z M141.943,445.172h-15.652v-99.006c5.793-1.165,11.115-3.639,15.652-7.095
			V445.172z M141.943,308.477c0,10.159-6.553,18.812-15.652,21.967V218.132c0-4.197-3.403-7.599-7.599-7.599
			c-4.197,0-7.599,3.403-7.599,7.599v227.04h-1.674c-0.007,0-0.013,0.001-0.019,0.001H86.169V298.441
			c0-4.197-3.402-7.599-7.599-7.599s-7.599,3.403-7.599,7.599v146.732H46.047V218.132c0-4.197-3.402-7.599-7.599-7.599
			c-4.197,0-7.599,3.403-7.599,7.599v112.31c-9.098-3.155-15.65-11.807-15.65-21.965V228.91c0-35.431,28.35-64.333,63.197-64.426
			c16.969-0.052,32.968,6.546,44.989,18.558c11.967,11.968,18.558,27.879,18.558,44.805V308.477z M212.915,445.172h-15.649v-99.007
			c5.791-1.166,11.112-3.639,15.649-7.094V445.172z M212.915,308.477c0,10.158-6.552,18.809-15.649,21.966V218.135
			c0-4.197-3.403-7.599-7.599-7.599c-4.197,0-7.599,3.403-7.599,7.599v227.038h-1.678v-0.001h-23.248V308.476v-80.631
			c0-20.985-8.171-40.713-23.011-55.553c-1.554-1.552-3.173-3.014-4.831-4.419c6.433-2.212,13.214-3.368,20.051-3.389h0.192
			c16.922,0,32.838,6.591,44.815,18.558c11.967,11.968,18.558,27.879,18.558,44.805V308.477z M283.886,445.172h-15.649v-99.007
			c5.791-1.166,11.112-3.639,15.649-7.095V445.172z M283.887,308.476c0,10.158-6.552,18.809-15.649,21.966v-54.635
			c0-4.197-3.402-7.599-7.599-7.599s-7.599,3.402-7.599,7.599v169.366h-1.678v-0.001h-23.249V227.845
			c0-20.985-8.171-40.713-23.011-55.553c-1.554-1.552-3.172-3.014-4.829-4.42c6.433-2.211,13.213-3.367,20.05-3.389h0.191
			c16.922,0,32.838,6.591,44.815,18.558c11.968,11.968,18.558,27.88,18.558,44.805V308.476z M354.857,445.172h-15.649v-99.007
			c5.791-1.166,11.112-3.639,15.649-7.095V445.172z M354.857,308.476c0,10.158-6.552,18.809-15.649,21.966V218.134
			c0-4.197-3.402-7.599-7.599-7.599s-7.599,3.403-7.599,7.599v227.038h-1.677h-23.248V227.845c0-20.984-8.172-40.713-23.012-55.553
			c-1.554-1.552-3.172-3.014-4.829-4.42c6.433-2.212,13.213-3.368,20.05-3.389h0.192c16.922,0,32.838,6.591,44.814,18.558
			c11.968,11.968,18.558,27.88,18.558,44.805V308.476z M425.829,445.172h-15.649v-99.007c5.791-1.166,11.112-3.639,15.649-7.095
			V445.172z M425.829,308.476c0,10.158-6.552,18.809-15.649,21.966V218.134c0-4.197-3.403-7.599-7.599-7.599
			c-4.197,0-7.599,3.403-7.599,7.599v227.038h-1.677h-23.248V227.845c0-20.984-8.172-40.713-23.012-55.553
			c-1.554-1.552-3.173-3.014-4.829-4.42c6.433-2.212,13.213-3.368,20.05-3.389h0.191c16.922,0,32.838,6.591,44.814,18.558
			c11.967,11.968,18.558,27.88,18.558,44.805V308.476z"/>
	</g>
</g>
<g>
</g>
<g>
</g>
<g>
</g>
<g>
</g>
<g>
</g>
<g>
</g>
<g>
</g>
<g>
</g>
<g>
</g>
<g>
</g>
<g>
</g>
<g>
</g>
<g>
</g>
<g>
</g>
<g>
</g>
</svg>
