<?xml version="1.0" encoding="utf-8"?>
<!-- Generator: Adobe Illustrator 24.1.0, SVG Export Plug-In . SVG Version: 6.00 Build 0)  -->
<svg version="1.1" id="Layer_1" xmlns="http://www.w3.org/2000/svg" xmlns:xlink="http://www.w3.org/1999/xlink" x="0px" y="0px"
	 viewBox="0 0 19.42 21.15" style="enable-background:new 0 0 19.42 21.15;" xml:space="preserve">
<style type="text/css">
	.st0{fill:#FFFFFF;}
</style>
<g id="mnQkLe.tif">
	<g>
		<path d="M5.07,19.02c-0.68,0-1.3-0.01-1.92,0.01c-0.32,0.01-0.52-0.1-0.68-0.37c-0.77-1.31-1.56-2.6-2.34-3.91
			c-0.29-0.49-0.14-0.78,0.44-0.79c1.26-0.01,2.52,0,3.78,0c0.75,0,0.75,0,0.67-0.84c-0.59,0-1.18-0.02-1.78,0.01
			c-0.39,0.02-0.63-0.12-0.83-0.46c-0.74-1.27-1.51-2.52-2.26-3.78C-0.16,8.32,0,8.03,0.67,8.03c1.29,0,2.58,0,3.87,0
			c0.16,0,0.32,0,0.5,0c0-0.29,0-0.52,0-0.84c-0.62,0-1.22-0.02-1.82,0.01c-0.37,0.01-0.6-0.12-0.79-0.45
			C1.69,5.47,0.91,4.21,0.15,2.93c-0.31-0.52-0.15-0.79,0.46-0.8c1.29,0,2.58,0,3.87,0c0.17,0,0.35,0,0.58,0
			c0-0.56,0.01-1.06,0-1.56C5.06,0.18,5.25,0,5.63,0c2.71,0,5.43,0,8.14,0c0.41,0,0.59,0.18,0.58,0.6c-0.02,0.49,0,0.97,0,1.5
			c0.22,0.01,0.4,0.03,0.57,0.03c1.31,0,2.61,0,3.92,0c0.57,0,0.73,0.29,0.44,0.78c-0.77,1.3-1.55,2.61-2.35,3.9
			C16.8,7,16.49,7.16,16.26,7.18c-0.61,0.05-1.23,0.02-1.88,0.02c0,0.29,0,0.53,0,0.84c0.18,0,0.35,0,0.53,0c1.29,0,2.58,0,3.87,0
			c0.63,0,0.8,0.29,0.48,0.83c-0.77,1.29-1.55,2.57-2.31,3.87c-0.17,0.29-0.38,0.41-0.72,0.4c-0.6-0.02-1.21-0.01-1.84-0.01
			c0,0.27,0,0.5,0,0.8c0.16,0.01,0.33,0.04,0.51,0.04c1.29,0,2.58,0,3.87,0c0.67,0,0.82,0.28,0.47,0.86
			c-0.75,1.26-1.52,2.52-2.26,3.78c-0.18,0.3-0.38,0.44-0.74,0.43c-0.6-0.03-1.21-0.01-1.88-0.01c0,0.52-0.02,1,0,1.48
			c0.02,0.46-0.17,0.65-0.63,0.65c-2.66-0.01-5.33,0-7.99-0.01c-0.55,0-0.65-0.1-0.65-0.67C5.07,20.01,5.07,19.54,5.07,19.02z
			 M5.94,0.88c0,6.49,0,12.93,0,19.36c2.55,0,5.05,0,7.56,0c0-6.48,0-12.91,0-19.36C10.96,0.88,8.47,0.88,5.94,0.88z M1.18,3
			c0.65,1.08,1.25,2.09,1.86,3.09C3.1,6.19,3.21,6.33,3.3,6.34c0.58,0.02,1.16,0.01,1.74,0.01c0-1.16,0-2.24,0-3.35
			C3.75,3,2.5,3,1.18,3z M14.39,3c0,1.13,0,2.23,0,3.35c0.53,0,1.02,0.02,1.51-0.01c0.17-0.01,0.4-0.14,0.49-0.28
			c0.46-0.71,0.88-1.45,1.32-2.17c0.17-0.28,0.33-0.57,0.52-0.89C16.9,3,15.65,3,14.39,3z M18.24,14.83c-1.35,0-2.6,0-3.86,0
			c0,1.12,0,2.2,0,3.35c0.58,0,1.13,0.01,1.68-0.01c0.09,0,0.22-0.08,0.27-0.16C16.96,16.97,17.58,15.93,18.24,14.83z M1.18,14.83
			c0.66,1.1,1.27,2.13,1.89,3.16c0.05,0.09,0.17,0.18,0.26,0.18c0.56,0.02,1.13,0.01,1.71,0.01c0-1.15,0-2.24,0-3.35
			C3.76,14.83,2.52,14.83,1.18,14.83z M5.05,8.93c-1.3,0-2.54,0-3.86,0c0.66,1.1,1.28,2.15,1.92,3.19c0.04,0.07,0.15,0.13,0.23,0.14
			c0.56,0.01,1.13,0.01,1.71,0.01C5.05,11.11,5.05,10.04,5.05,8.93z M18.23,8.93c-1.34,0-2.59,0-3.85,0c0,1.12,0,2.21,0,3.32
			c0.57,0,1.11,0.01,1.65-0.01c0.1,0,0.23-0.06,0.28-0.14C16.95,11.07,17.57,10.03,18.23,8.93z"/>
		<path class="st0" d="M5.94,0.88c2.53,0,5.03,0,7.56,0c0,6.46,0,12.89,0,19.36c-2.5,0-5.01,0-7.56,0
			C5.94,13.82,5.94,7.37,5.94,0.88z M11.82,10.57c0-1.18-0.95-2.11-2.12-2.1C8.54,8.48,7.62,9.4,7.6,10.56
			c-0.01,1.17,0.92,2.12,2.1,2.13C10.87,12.69,11.82,11.75,11.82,10.57z M9.71,14.39c-1.17,0-2.12,0.95-2.12,2.11
			c0.01,1.13,0.96,2.1,2.09,2.11c1.17,0.01,2.15-0.98,2.14-2.15C11.8,15.31,10.86,14.39,9.71,14.39z M9.7,6.76
			c1.17,0,2.13-0.94,2.12-2.11c0-1.14-0.95-2.1-2.08-2.12C8.57,2.52,7.59,3.5,7.6,4.68C7.6,5.83,8.55,6.76,9.7,6.76z"/>
		<path class="st0" d="M1.18,3C2.5,3,3.75,3,5.04,3c0,1.11,0,2.19,0,3.35c-0.58,0-1.16,0.01-1.74-0.01c-0.09,0-0.2-0.15-0.26-0.25
			C2.43,5.08,1.83,4.08,1.18,3z"/>
		<path class="st0" d="M14.39,3c1.26,0,2.51,0,3.83,0c-0.18,0.32-0.35,0.6-0.52,0.89c-0.43,0.73-0.86,1.46-1.32,2.17
			C16.3,6.2,16.07,6.33,15.9,6.34c-0.49,0.04-0.98,0.01-1.51,0.01C14.39,5.23,14.39,4.13,14.39,3z"/>
		<path class="st0" d="M18.24,14.83c-0.66,1.09-1.28,2.14-1.91,3.18c-0.05,0.08-0.18,0.16-0.27,0.16c-0.55,0.02-1.1,0.01-1.68,0.01
			c0-1.14,0-2.23,0-3.35C15.64,14.83,16.89,14.83,18.24,14.83z"/>
		<path class="st0" d="M1.18,14.83c1.34,0,2.58,0,3.86,0c0,1.11,0,2.2,0,3.35c-0.58,0-1.14,0.01-1.71-0.01
			c-0.09,0-0.21-0.1-0.26-0.18C2.45,16.96,1.84,15.93,1.18,14.83z"/>
		<path class="st0" d="M5.05,8.93c0,1.12,0,2.19,0,3.33c-0.59,0-1.15,0.01-1.71-0.01c-0.08,0-0.19-0.07-0.23-0.14
			c-0.63-1.04-1.26-2.09-1.92-3.19C2.51,8.93,3.75,8.93,5.05,8.93z"/>
		<path class="st0" d="M18.23,8.93c-0.66,1.09-1.28,2.14-1.92,3.18c-0.05,0.08-0.18,0.13-0.28,0.14c-0.54,0.01-1.08,0.01-1.65,0.01
			c0-1.12,0-2.2,0-3.32C15.64,8.93,16.89,8.93,18.23,8.93z"/>
		<path d="M11.82,10.57c0,1.17-0.94,2.12-2.11,2.11c-1.17-0.01-2.11-0.96-2.1-2.13C7.62,9.4,8.54,8.48,9.69,8.47
			C10.87,8.46,11.81,9.39,11.82,10.57z M10.98,10.56c-0.01-0.69-0.61-1.27-1.3-1.25C9,9.32,8.44,9.89,8.44,10.57
			c0,0.69,0.59,1.28,1.28,1.28C10.41,11.84,10.99,11.25,10.98,10.56z"/>
		<path d="M9.71,14.39c1.15,0,2.09,0.92,2.11,2.07c0.02,1.18-0.97,2.17-2.14,2.15C8.55,18.6,7.6,17.64,7.6,16.5
			C7.59,15.34,8.54,14.39,9.71,14.39z M9.7,17.75c0.71,0,1.28-0.56,1.28-1.26c0-0.69-0.6-1.28-1.28-1.27
			c-0.67,0.01-1.24,0.59-1.25,1.25C8.43,17.17,8.99,17.74,9.7,17.75z"/>
		<path d="M9.7,6.76c-1.15,0-2.09-0.94-2.1-2.08C7.59,3.5,8.57,2.52,9.75,2.54c1.13,0.02,2.07,0.98,2.08,2.12
			C11.83,5.82,10.87,6.77,9.7,6.76z M10.98,4.67c0.01-0.7-0.56-1.27-1.27-1.27C9,3.41,8.44,3.97,8.44,4.67
			c0,0.67,0.57,1.24,1.25,1.26C10.36,5.95,10.97,5.36,10.98,4.67z"/>
		<path class="st0" d="M10.98,10.56c0.01,0.69-0.57,1.28-1.26,1.29c-0.69,0-1.28-0.59-1.28-1.28c0-0.68,0.56-1.25,1.24-1.26
			C10.37,9.29,10.97,9.86,10.98,10.56z"/>
		<path class="st0" d="M9.7,17.75c-0.7,0-1.27-0.58-1.26-1.28c0.01-0.66,0.59-1.24,1.25-1.25c0.68-0.01,1.28,0.58,1.28,1.27
			C10.98,17.19,10.41,17.75,9.7,17.75z"/>
		<path class="st0" d="M10.98,4.67c-0.01,0.69-0.61,1.28-1.29,1.26C9.01,5.91,8.44,5.34,8.44,4.67c0-0.7,0.56-1.27,1.27-1.27
			C10.42,3.4,10.98,3.97,10.98,4.67z"/>
	</g>
</g>
</svg>
