<?xml version="1.0" encoding="iso-8859-1"?>
<!-- Generator: Adobe Illustrator 19.0.0, SVG Export Plug-In . SVG Version: 6.00 Build 0)  -->
<svg version="1.1" id="Capa_1" xmlns="http://www.w3.org/2000/svg" xmlns:xlink="http://www.w3.org/1999/xlink" x="0px" y="0px"
	 viewBox="0 0 496.098 496.098" style="enable-background:new 0 0 496.098 496.098;" xml:space="preserve">
<g>
	<g>
		<g>
			<path d="M371.362,424h0.8c39.765,0.007,72.005-32.224,72.012-71.988c0-1.413-0.041-2.826-0.124-4.236L431.122,128
				C426.821,56.154,367.337,0.07,295.362,0h-94.624C128.763,0.07,69.28,56.154,64.978,128L52.05,347.776
				c-2.333,39.696,27.956,73.767,67.652,76.1c1.405,0.083,2.812,0.124,4.22,0.124h0.8l-58.328,58.344
				c-3.178,3.069-3.266,8.134-0.196,11.312c3.07,3.178,8.134,3.266,11.312,0.196c0.067-0.064,0.132-0.13,0.196-0.196L147.362,424
				h201.376l69.656,69.656c3.178,3.07,8.242,2.982,11.312-0.196c2.995-3.1,2.995-8.016,0-11.116L371.362,424z M200.738,16h94.624
				c60.04,0.08,110.791,44.5,118.824,104H81.914C89.947,60.5,140.698,16.08,200.738,16z M80.53,136h335.04l7.056,120H73.474
				L80.53,136z M123.922,408c-15.437,0.06-30.2-6.318-40.736-17.6c-10.652-11.179-16.16-26.293-15.2-41.704L72.53,272h351.04
				l4.512,76.712c1.816,30.875-21.741,57.375-52.615,59.191c-1.095,0.064-2.192,0.097-3.289,0.097H123.922z"/>
			<path d="M400.05,328c0-22.091-17.909-40-40-40c-22.091,0-40,17.909-40,40c0.026,22.08,17.92,39.974,40,40
				C382.142,368,400.05,350.091,400.05,328z M360.05,352c-13.255,0-24-10.745-24-24s10.745-24,24-24s24,10.745,24,24
				S373.305,352,360.05,352z"/>
			<path d="M336.05,72h-176c-4.418,0-8,3.582-8,8s3.582,8,8,8h176c4.418,0,8-3.582,8-8S340.468,72,336.05,72z"/>
			<path d="M296.05,328h-96c-4.418,0-8,3.582-8,8s3.582,8,8,8h96c4.418,0,8-3.582,8-8S300.468,328,296.05,328z"/>
			<path d="M272.05,360h-48c-4.418,0-8,3.582-8,8s3.582,8,8,8h48c4.418,0,8-3.582,8-8S276.468,360,272.05,360z"/>
			<path d="M136.05,288c-22.091,0-40,17.909-40,40c0,22.091,17.909,40,40,40c22.08-0.026,39.974-17.92,40-40
				C176.05,305.909,158.142,288,136.05,288z M136.05,352c-13.255,0-24-10.745-24-24s10.745-24,24-24s24,10.745,24,24
				S149.305,352,136.05,352z"/>
			<path d="M400.05,144h-304c-4.418,0-8,3.582-8,8v88c0,4.418,3.582,8,8,8h304c4.418,0,8-3.582,8-8v-88
				C408.05,147.582,404.468,144,400.05,144z M392.05,232h-288v-72h288V232z"/>
		</g>
	</g>
</g>
<g>
</g>
<g>
</g>
<g>
</g>
<g>
</g>
<g>
</g>
<g>
</g>
<g>
</g>
<g>
</g>
<g>
</g>
<g>
</g>
<g>
</g>
<g>
</g>
<g>
</g>
<g>
</g>
<g>
</g>
</svg>
