<?xml version="1.0"?>
<svg xmlns="http://www.w3.org/2000/svg" width="512" height="512" viewBox="0 0 512 512"><g><path d="M476,192H389.77l-14.18-42.53A8,8,0,0,0,368,144H332.53L262.86,27.88a8,8,0,0,0-13.72,8.24L313.87,144H288a8,8,0,0,0-7.59,5.47L266.23,192H245.77l-14.18-42.53A8,8,0,0,0,224,144H188.53L118.86,27.88a8,8,0,1,0-13.72,8.24L169.87,144H144a8,8,0,0,0-7.59,5.47L122.23,192H36A28.031,28.031,0,0,0,8,220V440a8,8,0,0,0,8,8h8.68a47.99,47.99,0,0,0,94.64,0h17.36a47.99,47.99,0,0,0,94.64,0h49.36a47.99,47.99,0,0,0,94.64,0h17.36a47.99,47.99,0,0,0,94.64,0H496a8,8,0,0,0,8-8V220A28.031,28.031,0,0,0,476,192ZM293.77,160h68.46l10.67,32H283.1Zm-144,0h68.46l10.67,32H139.1ZM72,472a32.058,32.058,0,0,1-30.99-24h61.98A32.058,32.058,0,0,1,72,472Zm112,0a32.058,32.058,0,0,1-30.99-24h61.98A32.058,32.058,0,0,1,184,472Zm144,0a32.058,32.058,0,0,1-30.99-24h61.98A32.058,32.058,0,0,1,328,472Zm112,0a32.058,32.058,0,0,1-30.99-24h61.98A32.058,32.058,0,0,1,440,472Zm48-40H24V376H488Zm0-72H24V220a12.01,12.01,0,0,1,12-12H476a12.01,12.01,0,0,1,12,12Z"/><path d="M200,344H312a8,8,0,0,0,8-8V240a8,8,0,0,0-8-8H200a8,8,0,0,0-8,8v96A8,8,0,0,0,200,344Zm8-16V272h96v56Zm96-80v8H208v-8Z"/><path d="M56,344H168a8,8,0,0,0,8-8V240a8,8,0,0,0-8-8H56a8,8,0,0,0-8,8v96A8,8,0,0,0,56,344Zm8-16V272h96v56Zm96-80v8H64v-8Z"/><path d="M344,344H456a8,8,0,0,0,8-8V240a8,8,0,0,0-8-8H344a8,8,0,0,0-8,8v96A8,8,0,0,0,344,344Zm8-16V272h96v56Zm96-80v8H352v-8Z"/><path d="M456,384H376a8,8,0,0,0,0,16h80a8,8,0,0,0,0-16Z"/><path d="M456,408H424a8,8,0,0,0,0,16h32a8,8,0,0,0,0-16Z"/></g></svg>
