<?xml version="1.0"?>
<svg xmlns="http://www.w3.org/2000/svg" width="512" height="512" viewBox="0 0 512 512"><g><path d="M104,416a24,24,0,1,0,24,24A24.027,24.027,0,0,0,104,416Zm0,32a8,8,0,1,1,8-8A8.009,8.009,0,0,1,104,448Z"/><path d="M408,416a24,24,0,1,0,24,24A24.027,24.027,0,0,0,408,416Zm0,32a8,8,0,1,1,8-8A8.009,8.009,0,0,1,408,448Z"/><path d="M503.82,294.32,473.47,152.91a8.18,8.18,0,0,0-.76-2.09A27.966,27.966,0,0,0,448,136H308.28L278.66,91.56A8.033,8.033,0,0,0,272,88H251.07L173.35,18.05a8,8,0,1,0-10.7,11.9L227.15,88H203.07L125.35,18.05a8,8,0,1,0-10.7,11.9L179.15,88H160a8,8,0,0,0-8,8v40H36A28.031,28.031,0,0,0,8,164V420a28.031,28.031,0,0,0,28,28H48.58a55.994,55.994,0,0,0,110.84,0H352.58a55.994,55.994,0,0,0,110.84,0H476a28.031,28.031,0,0,0,28-28V296A7.927,7.927,0,0,0,503.82,294.32ZM470.65,216l15.45,72H360V216Zm-3.44-16H360V184H463.78ZM168,104h99.72l21.33,32H168ZM24,184H80v16H24Zm0,32H80v72H24Zm0,136H40a8,8,0,0,1,0,16H24Zm80,128a40,40,0,1,1,40-40A40.04,40.04,0,0,1,104,480Zm304,0a40,40,0,1,1,40-40A40.04,40.04,0,0,1,408,480Zm80-112H472a8,8,0,0,1,0-16h16Zm0-32H472a24,24,0,0,0,0,48h16v36a12.01,12.01,0,0,1-12,12H463.42a55.994,55.994,0,0,0-110.84,0H159.42a55.994,55.994,0,0,0-110.84,0H36a12.01,12.01,0,0,1-12-12V384H40a24,24,0,0,0,0-48H24V304H88a8,8,0,0,0,8-8V176a8,8,0,0,0-8-8H24v-4a12.01,12.01,0,0,1,12-12H448a11.982,11.982,0,0,1,10.09,5.51L460.34,168H352a8,8,0,0,0-8,8V296a8,8,0,0,0,8,8H488Z"/><path d="M384,312H360a8,8,0,0,0,0,16h24a8,8,0,0,0,0-16Z"/><path d="M216,296V176a8,8,0,0,0-8-8H120a8,8,0,0,0-8,8V296a8,8,0,0,0,8,8h88A8,8,0,0,0,216,296ZM128,184h72v16H128Zm0,104V216h72v72Z"/><path d="M288,384H176a8,8,0,0,0,0,16H288a8,8,0,0,0,0-16Z"/><path d="M208,408H176a8,8,0,0,0,0,16h32a8,8,0,0,0,0-16Z"/><path d="M328,168H240a8,8,0,0,0-8,8V296a8,8,0,0,0,8,8h88a8,8,0,0,0,8-8V176A8,8,0,0,0,328,168Zm-80,16h72v16H248Zm0,104V216h72v72Z"/></g></svg>
