<?xml version="1.0" encoding="UTF-8" standalone="no"?>
<!-- Created with Inkscape (http://www.inkscape.org/) -->
<svg
   xmlns:svg="http://www.w3.org/2000/svg"
   xmlns="http://www.w3.org/2000/svg"
   version="1.0"
   width="500"
   height="620"
   viewBox="0 0 567.146 703.743"
   id="Layer_1"
   xml:space="preserve"><defs
   id="defs174">
	
		
	
	
	
	
	
	
	
	
	
	
	
	
	
	
	
	
	
	
	
	
	
	
	
	
	
	
	
	
	
	
	
	
	
	
	
	
	
	
	
	
	
	
	
	
	
	
	
	
	
	
	
	
	
	
	
	
	
	
	
	
	
	
	
	
	
	
	
	
	
	
	
	
	
	
	
	
	
	
	
	
	
	
	
</defs>
<path
   d="M 1.3056739,1.499802 L 565.84033,1.499802 L 565.84033,346.54439 C 565.73912,351.56711 565.73912,356.59386 565.53972,361.61455 C 562.61971,434.87445 537.55014,504.52203 492.16902,562.29785 C 438.61423,630.03617 364.00238,674.0238 283.572,702.2432 C 172.29423,665.85274 106.96703,610.23088 43.192893,513.9627 C 20.05548,471.47714 6.3805202,424.54433 2.4999935,376.38385 C 1.695346,366.39193 1.5050645,356.55651 1.3056739,346.54439 L 1.3056739,1.499802 L 1.3056739,1.499802 z "
   style="fill:#ed1c24;fill-rule:evenodd;stroke:#000000;stroke-width:3.00001287;stroke-miterlimit:4;stroke-dasharray:none;stroke-opacity:1"
   id="path9" />
<path
   d="M 465.26963,347.1373 C 441.02415,364.7958 425.25202,329.79988 390.61968,318.90776 C 355.8504,307.97198 339.65094,311.79077 339.65094,311.79077 L 341.07929,296.86738 C 341.07929,296.86738 348.685,301.01671 352.53685,301.47119 C 419.0428,256.22768 398.65861,195.06448 391.1804,140.38557 C 374.39071,143.04632 349.7545,145.8688 349.7545,145.8688 L 357.95397,99.140286 L 347.23303,76.122484 C 347.23303,76.122484 320.99258,77.319472 312.48147,83.841515 C 303.96917,90.364739 299.48342,105.88661 299.48342,105.88661 L 302.23507,109.84233 L 295.53714,122.40598 L 297.46719,125.30047 L 297.73515,141.81982 L 282.89323,146.08837 L 247.57975,127.1408 L 247.45463,121.58792 L 259.66767,79.39354 L 270.39569,69.269912 L 274.89797,90.905395 L 282.28883,91.27369 L 282.89204,70.772638 L 460.70479,65.881992 L 478.0304,59.435497 L 462.08711,51.930131 L 282.58276,46.521261 L 282.34786,25.535037 L 276.33695,25.981251 C 276.33695,25.981251 272.31394,44.665577 270.75573,50.510037 C 268.02769,31.808003 260.23547,42.587967 260.23547,42.587967 L 253.80078,41.405145 L 235.72321,52.460157 L 225.93956,55.355826 C 225.93956,55.355826 207.16787,34.524242 200.74144,59.450843 C 209.0755,82.502873 221.58956,64.426483 221.58956,64.426483 L 234.89571,63.418371 L 237.24837,73.144183 L 220.81163,99.913478 L 212.26038,136.09341 L 194.26781,128.94101 L 194.76359,114.03533 L 185.95028,122.13093 L 185.03778,114.24545 L 173.4256,123.97244 L 151.10544,130.19466 L 148.69967,140.8542 C 148.69967,140.8542 110.99695,178.69033 96.206961,220.19295 C 97.295346,226.55917 108.82018,235.81752 108.82018,235.81752 L 124.59939,216.83808 L 128.98126,221.1503 L 119.51161,233.63013 C 119.51161,233.63013 126.62388,238.60577 136.41699,234.62054 C 139.49326,233.36925 138.41314,225.79305 138.41314,225.79305 L 145.78866,220.14573 L 146.58429,240.9419 C 146.58429,240.9419 132.48723,262.62224 128.86085,278.73906 C 114.35536,291.22951 110.98632,307.25072 108.56874,312.99248 C 71.398406,307.55292 70.769222,287.49454 50.087556,310.9739 C 39.368976,344.20266 32.704096,356.42398 19.767432,370.08308 C 22.589913,392.75855 3.0037146,414.52742 30.395116,435.97284 C 40.234253,428.86883 41.742881,424.79979 41.852665,423.81764 C 41.819612,423.55322 41.885717,423.5178 41.852665,423.81764 C 42.314225,427.42277 48.085496,456.4373 74.937427,455.40793 C 76.04706,453.93118 86.28165,417.13741 61.652525,410.03577 C 69.50967,395.53027 49.524476,397.52996 90.965717,363.79949 C 121.7899,392.32413 137.12644,393.52821 151.17864,399.87436 C 166.37706,407.05982 172.26402,411.43343 175.70034,398.374 C 180.87312,398.00569 186.68334,403.36498 186.68334,403.36498 L 182.39238,411.60578 C 182.39238,411.60578 175.27892,411.38503 172.7787,415.03855 C 170.11086,418.94706 171.74816,424.30871 171.74816,424.30871 C 171.74816,424.30871 159.42297,423.87784 149.94742,430.48842 C 139.85684,437.52869 135.1834,449.19872 135.1834,449.19872 L 155.56051,447.01723 L 179.73633,454.26998 L 182.73589,450.57277 L 204.25332,455.15413 L 204.27339,435.8784 L 211.29476,434.38984 C 211.29476,434.38984 225.10143,556.28771 291.7396,564.90154 C 266.30893,510.68536 256.54771,474.26225 256.54771,474.26225 L 262.72742,474.26225 C 262.72742,474.26225 278.26464,561.78749 331.9083,569.36486 C 319.6988,542.10331 295.79212,472.60489 295.79212,472.60489 L 301.86558,472.71821 C 301.86558,472.71821 326.51242,546.24908 338.94503,560.26704 C 365.03674,525.35258 328.95242,447.96277 328.95242,447.96277 L 338.75851,446.33845 C 338.75851,446.33845 339.32159,462.64298 370.56365,492.03762 C 403.48905,517.69375 421.38247,522.27039 371.21763,574.34286 C 343.97378,579.68326 338.07738,587.14967 334.35304,604.02435 C 337.32897,611.89449 360.29955,612.01725 360.29955,612.01725 C 360.29955,612.01725 356.27772,616.75089 363.01933,618.66561 C 377.00779,622.64021 407.4377,624.64464 406.73413,598.15157 C 409.68883,597.28628 411.15496,594.49803 411.15496,594.49803 C 411.15496,594.49803 418.86455,598.93776 431.08821,598.41835 C 442.89164,516.54398 470.72099,518.78686 466.65313,501.34909 C 466.0688,498.84416 426.53164,470.2357 426.53164,470.2357 C 426.53164,470.2357 438.2843,451.94801 441.66514,452.29152 C 452.48052,504.71458 491.72492,464.99681 491.72492,464.99681 C 491.72492,464.99681 468.44506,471.88126 472.8411,455.55432 C 476.44622,442.16435 545.1136,437.01518 551.63683,372.8123 C 558.35955,306.64868 490.35205,328.86731 465.26963,347.1373 z M 49.386363,371.89154 C 48.623785,355.90103 67.424977,333.22203 67.424977,333.22203 L 75.695282,335.6644 C 75.695282,335.6644 56.129153,369.43264 49.386363,371.89154 z M 153.8996,233.36098 L 153.61511,215.47938 L 160.94341,211.39616 L 175.79596,210.41283 L 153.8996,233.36098 z M 268.82213,229.91641 L 258.07523,191.54908 L 245.2507,165.87643 L 264.09675,172.80218 L 276.98739,227.71839 L 268.82213,229.91641 z M 395.00863,582.98147 C 395.00863,582.98147 415.42586,550.36417 425.68644,539.95959 C 415.07291,585.76499 395.00863,582.98147 395.00863,582.98147 z M 461.98558,404.31171 L 454.78478,367.73278 C 454.78478,367.73278 470.18624,378.05119 484.3317,368.11171 C 488.8387,373.70237 493.61247,379.00619 493.61247,379.00619 L 461.98558,404.31171 z "
   style="fill:#ffffff"
   id="bielaje" /><path
   d="M 547.43557,340.70969 C 540.39176,329.30644 525.52622,322.12453 502.91214,327.11079 C 477.99499,332.60465 462.66082,352.35021 447.35142,349.96332 C 434.51391,347.96244 413.66226,322.4763 381.62929,313.91441 C 371.00515,311.07541 354.03013,309.50304 342.20427,310.04722 C 342.82283,306.81276 343.50278,302.2798 343.77193,299.67452 C 346.35832,300.84082 349.52785,302.31876 352.67968,303.59247 C 419.70622,253.97891 400.04919,205.22826 392.49189,137.31637 C 389.74496,137.87827 365.07806,142.10904 352.65017,144.20554 C 347.15394,130.45554 372.68376,103.48438 348.13609,75.096664 C 318.08157,75.279636 307.3075,80.379225 299.19066,101.35246 C 298.75743,102.4739 297.95708,105.235 297.4176,107.05999 C 296.76245,109.2769 298.4753,110.48569 301.35326,111.0287 C 299.64868,113.59384 296.55351,118.28381 295.01183,120.98469 C 293.842,123.04342 292.48682,125.71126 296.36582,126.23538 C 295.88301,127.62598 294.76158,131.16499 294.78872,131.8225 C 294.80406,132.25219 294.869,132.34545 296.89938,132.32774 C 297.17443,132.51426 297.25352,133.33349 297.32317,134.52458 C 297.41052,135.96946 296.90175,138.06478 296.80258,138.7459 C 296.70343,139.3869 296.63379,140.79519 296.91355,141.3559 C 288.56533,142.16571 282.9369,144.50774 282.9369,144.50774 C 282.9369,144.50774 271.15118,135.5929 251.395,128.47236 C 250.09178,125.03486 247.9575,122.32098 247.9575,122.32098 C 247.9575,122.32098 250.68201,114.95963 251.69601,108.63236 C 252.80802,108.43994 254.41108,108.22629 255.62931,107.99137 C 253.49859,91.950093 260.85758,80.585805 264.31514,76.012702 C 265.28666,75.416569 268.54473,72.943504 269.54576,71.47029 L 273.90874,94.342896 L 285.31671,94.399552 L 285.29783,72.849067 C 305.15553,72.167943 456.6263,67.907661 458.58114,67.540538 C 462.97717,66.716576 483.5101,58.808672 483.5101,58.808672 C 483.5101,58.808672 463.61227,50.690647 458.25297,49.935152 C 454.66673,49.429915 303.02362,46.41738 285.27893,45.953459 L 285.26005,23.855241 L 274.58868,23.723029 C 274.58868,23.723029 272.10028,35.913644 270.92454,41.281197 C 270.64123,40.563477 268.68993,37.573371 265.75884,37.580455 C 260.75842,37.592258 260.18471,40.306136 260.14694,40.476123 C 259.78099,40.230587 258.83662,38.322963 254.80535,39.550642 C 251.09634,40.680343 251.081,42.23855 251.081,42.23855 C 251.081,42.23855 249.18873,40.788945 245.76656,43.384777 C 243.39148,45.18616 243.26045,46.534246 243.26045,46.534246 C 243.26045,46.534246 240.80863,45.986512 238.03573,47.854 C 236.92374,48.603593 235.48948,50.219643 235.14597,52.166222 L 223.97054,52.110741 C 223.80292,51.8534 222.8857,50.41914 222.70156,50.174786 C 220.23557,46.899008 216.42504,44.787165 212.14234,44.787165 C 204.71133,44.787165 198.6662,51.116793 198.6662,58.898388 C 198.6662,66.677622 204.71133,73.00725 212.14234,73.00725 C 216.52421,73.00725 220.41618,70.798608 222.87743,67.395342 C 223.06277,67.139182 223.64592,66.151136 223.81473,65.881992 L 233.32924,65.85248 C 233.33514,67.742396 233.43429,70.817495 235.66419,72.939964 C 232.19127,77.579172 224.29399,89.687155 216.64815,102.26732 C 217.30921,102.85873 218.17684,103.50326 219.18142,104.0144 C 217.61022,106.4674 213.25669,115.88039 213.25669,127.03573 C 212.36426,130.27021 211.91451,131.95944 211.29122,134.50923 C 206.36281,131.89688 201.11683,129.14641 195.75282,127.54688 C 196.60747,124.84953 197.1977,120.65772 196.88725,114.08373 C 196.72671,110.67338 196.33951,110.66984 195.06343,111.7712 C 193.57487,113.05791 190.27194,115.08712 188.19787,117.06439 C 188.25454,116.10114 187.89568,112.90917 187.51793,112.00258 C 182.55056,113.32469 176.63881,115.49675 172.55914,123.80719 C 162.73062,123.62657 152.68963,126.60252 147.47671,130.98438 C 147.18041,133.79033 147.86744,137.94792 147.77891,140.95691 C 136.29539,150.4006 99.478017,194.74813 95.56361,221.56346 C 95.22954,223.85237 99.559468,232.52522 105.06867,235.7467 C 108.34209,237.66023 112.92582,237.60946 115.3434,231.01187 C 117.36081,225.50738 120.47251,221.40174 124.71153,219.09984 L 126.49994,221.69331 C 122.65753,224.80973 120.11837,227.11281 118.81868,231.01187 C 118.21428,232.82506 118.17769,237.29309 122.84759,238.41572 C 128.08648,239.67408 134.64983,238.69548 137.50418,237.28248 C 141.31943,235.39374 141.49651,231.32587 141.39498,230.2186 C 141.30763,229.26007 140.96058,228.15988 140.62061,227.46105 C 141.04793,227.02428 142.13395,226.23455 143.59182,225.25241 C 144.00144,232.17581 143.70751,238.43933 143.26011,244.5789 C 135.59538,254.58094 130.47219,264.85331 127.58241,278.70836 C 115.9478,287.1699 109.98293,299.88936 107.63735,310.48991 C 85.907445,304.95945 78.783366,300.81721 73.111255,298.35714 C 69.550986,296.81191 64.260163,297.84246 61.041047,299.62731 C 52.676305,304.26533 46.802335,308.56694 45.477858,314.55541 C 35.904325,357.85115 19.462873,361.09624 18.589332,371.57401 C 16.542414,396.14529 12.767302,405.46502 13.080124,411.43225 C 13.35163,416.56725 17.824394,432.37597 31.502389,439.06564 C 36.973822,434.74634 40.244877,431.58624 41.858566,429.25366 C 42.055703,430.12602 42.305962,430.99601 42.445256,431.90498 C 45.333842,450.70971 63.841099,455.80811 75.381279,457.67089 C 90.421525,430.64779 72.001622,409.33338 66.754475,408.63337 C 65.336743,408.91196 63.184763,409.85398 62.941589,409.07487 C 62.736189,408.41854 63.313434,408.47638 65.131342,407.53319 C 69.563971,405.23483 63.401968,395.51374 64.636729,392.79159 C 66.974041,387.64361 85.428178,366.08015 90.324727,366.0223 C 95.047749,365.96564 113.95165,386.30025 130.70355,394.01574 C 136.01445,396.46401 142.84223,395.5161 165.44569,408.22494 C 170.07309,410.82903 174.05478,407.63235 175.5882,404.03312 C 175.98247,403.1041 176.34959,402.24 176.70019,401.41014 C 178.21709,401.48451 180.82944,402.10897 184.90203,404.46636 L 180.99825,409.73711 C 180.5237,409.671 180.04326,409.62379 179.55219,409.62379 C 173.94972,409.62379 169.40849,414.16265 169.40849,419.75685 C 169.40849,420.46867 169.50174,421.15452 169.64104,421.82384 C 167.40525,422.12839 163.62777,422.97715 159.16917,424.29218 C 155.83791,425.27432 150.09615,428.09444 145.4475,431.30648 C 140.17202,435.24331 135.43602,440.7596 132.77999,448.48572 C 132.34321,449.75707 132.07525,450.87379 131.75771,452.26673 C 132.67138,452.08376 133.59805,451.88898 134.65101,451.62574 C 142.3606,449.69569 152.45589,448.88707 157.43626,448.58724 C 157.10101,449.44071 156.84485,450.19975 156.67487,450.76637 C 157.66409,450.97059 178.30916,455.62868 182.64971,456.79026 C 182.8315,455.84353 183.16085,454.32546 183.54096,451.96453 C 187.46245,453.46727 196.13647,456.59548 206.21288,457.70629 C 206.57174,454.70084 205.81979,442.98477 206.08422,436.84638 L 208.96335,435.77098 C 212.60035,465.8196 231.33662,558.1918 293.28718,566.85401 C 291.42323,547.51572 270.38152,527.65919 258.71976,475.00712 C 258.69025,474.95046 261.29316,475.07913 261.29316,475.07913 C 261.29316,475.07913 273.87096,563.02933 333.09939,571.41532 C 335.43079,560.46654 306.40799,512.72874 298.48121,474.75332 C 299.96859,474.72499 301.77587,474.8088 301.77587,474.8088 C 301.77587,474.8088 314.7267,531.04711 338.62984,563.31264 C 364.34971,531.70345 344.64901,483.09799 332.07828,449.8704 C 332.61421,449.21642 333.32014,448.47982 333.91508,448.0336 C 334.24207,448.01944 336.8438,448.30865 337.25696,448.29213 C 337.52139,452.8251 340.56697,464.76308 350.71067,472.04652 C 360.9736,488.10315 371.94952,496.25541 385.24622,503.81036 C 388.54207,506.36959 400.28292,520.61774 401.60977,526.23202 C 402.88465,531.622 392.59105,546.47928 383.27957,559.74647 C 379.35926,565.3324 374.55597,570.9207 369.94981,573.37135 C 362.96976,577.08507 336.62896,570.63149 332.02988,606.45964 C 335.74243,609.97623 347.13623,614.9625 358.37304,613.00884 C 358.24083,614.17985 357.98939,616.27753 357.77927,617.50876 C 361.34426,620.76328 371.35221,622.94123 381.22675,623.03803 C 394.19647,623.16788 411.57521,615.24817 408.30533,599.53388 C 411.20809,597.83756 411.24941,596.46586 421.36241,599.28835 C 431.21689,602.03883 433.4515,598.70874 433.76786,593.63513 C 434.36046,584.15957 435.52911,576.93987 438.49324,567.35808 C 446.95478,540.00917 461.5441,519.06544 467.68603,507.98092 C 470.24054,503.37004 468.49936,499.42376 465.69105,497.47483 C 457.30506,491.65752 436.9067,477.00092 430.3339,471.25916 C 428.29407,469.47667 428.06742,468.76603 430.0317,466.47357 C 432.92502,463.09745 437.83809,457.40764 440.49885,454.08346 C 441.26378,460.12742 443.69553,466.39331 446.18395,470.18848 C 455.46708,484.354 477.57357,487.02185 497.87158,460.41073 C 495.4233,461.28427 493.44958,462.05865 490.25525,463.08683 C 475.42041,467.86769 471.69133,459.97396 477.25366,450.93872 C 485.87692,447.61335 498.40751,443.74617 510.56743,435.75092 C 521.59765,428.49817 538.91383,413.48389 547.43557,397.82509 C 555.62089,382.78366 556.9548,356.12178 547.43557,340.70969 z M 212.14234,69.168393 C 206.85505,69.168393 202.57234,64.5705 202.57234,58.898388 C 202.57234,53.225095 206.85505,48.626022 212.14234,48.626022 C 217.42489,48.626022 221.70996,53.225095 221.70996,58.898388 C 221.70996,64.5705 217.42489,69.168393 212.14234,69.168393 z M 407.54276,329.3513 C 410.99207,331.42891 413.76023,333.30112 415.62301,334.62205 C 414.74946,343.25712 412.40861,358.06363 408.23451,375.0481 C 406.66567,381.43557 404.76868,387.88325 402.57774,394.35335 C 401.18479,392.54724 399.01157,391.34907 396.62822,391.34907 C 396.22922,391.34907 395.83732,391.39157 395.45248,391.4565 C 395.21403,391.34436 394.97794,391.23575 394.73712,391.12125 C 396.81473,384.93799 398.61375,378.7819 400.10113,372.68835 C 404.83006,353.31464 406.95017,337.28163 407.41054,331.50918 C 407.43887,331.14323 407.50852,329.92146 407.54276,329.3513 z M 456.75379,370.73469 C 466.11838,376.11996 473.89407,376.4493 482.28832,371.75225 C 482.76406,371.48665 483.59392,371.16084 484.06846,370.81378 C 487.86128,372.89966 491.07921,376.4682 492.57603,379.16437 C 481.10197,385.95437 469.99855,395.23043 462.97481,402.25417 C 463.27347,393.79499 459.79702,380.51599 456.75379,370.73469 z M 185.41081,428.02008 C 188.00074,426.1821 189.6947,423.1731 189.6947,419.75685 C 189.6947,419.29647 189.65338,418.85026 189.59554,418.40759 L 219.59222,365.47575 C 223.57863,364.67894 232.42737,364.70963 236.69946,366.06008 C 233.86988,381.88297 224.89366,393.94727 213.81977,405.40127 C 206.75589,412.71069 200.06976,421.98556 197.40547,432.15051 L 185.41198,434.10889 C 185.52177,431.75859 185.53122,429.6621 185.41081,428.02008 z M 215.12182,406.662 C 226.21461,395.19501 235.43281,382.88163 238.42174,366.6928 C 241.79668,368.08102 244.15169,369.86116 245.75831,371.75815 C 246.45241,384.67121 244.78561,402.02752 226.18037,407.02558 C 224.29989,407.98058 203.69732,430.85908 203.57455,431.1424 L 199.36857,431.82943 C 202.03641,422.42234 208.37194,413.63735 215.12182,406.662 z M 217.55828,363.49847 C 217.55828,363.49847 214.14794,354.61787 215.751,349.31761 C 220.50235,344.27821 229.7182,343.44127 229.7182,343.44127 C 229.7182,343.44127 237.22948,355.97068 256.42848,355.65313 C 253.42539,359.09418 248.2963,365.5631 246.28597,369.13281 C 237.70284,359.98188 217.55828,363.49847 217.55828,363.49847 z M 147.02342,224.26318 C 147.01988,224.21005 146.99391,223.68358 146.96322,223.05439 C 148.58871,222.01795 150.36058,220.91421 152.0994,219.84471 C 152.19738,220.81505 152.33903,222.21508 152.36264,222.49956 C 153.5254,236.33693 152.53499,251.22844 152.46298,252.97197 C 152.34376,253.06995 147.43304,252.80552 146.62088,252.77012 C 147.18278,244.66743 147.81904,234.77164 147.02342,224.26318 z M 174.59897,143.41227 C 174.62612,144.20671 174.97555,145.30455 175.20809,144.98464 C 177.25973,142.15862 181.10803,140.34189 184.99529,137.92313 C 185.23846,137.99632 185.47809,138.08485 185.72009,138.1604 C 185.27859,141.54242 183.21988,146.60069 180.18727,152.44869 C 175.9081,147.40458 171.25473,143.25645 167.54336,140.28287 C 168.28705,140.29939 169.25975,140.1719 171.10481,139.50258 C 172.47533,138.86631 173.69238,137.74606 174.44197,136.29291 C 174.52696,136.30117 174.88583,136.31179 174.96963,136.32242 C 174.34636,138.7282 174.50454,140.71964 174.59897,143.41227 z M 252.25556,252.92947 C 218.00568,253.86086 169.17239,255.26561 154.99507,253.17737 C 154.96084,251.68055 155.28546,244.65916 155.1863,236.7737 C 155.27602,236.6887 155.35983,236.59899 155.45072,236.51399 C 175.35682,214.05927 202.44957,192.76377 197.64156,172.23439 C 197.35825,171.08226 196.37611,170.62896 196.68539,172.28396 C 197.38776,176.28927 197.75961,182.08533 190.9094,192.16056 C 191.07584,190.56575 191.16437,188.71125 191.17028,186.63364 C 191.15139,179.80114 190.17043,170.9772 187.43058,163.88972 C 187.57341,163.34198 187.6584,162.75175 187.6584,162.11076 C 187.65605,161.71058 187.61473,161.33519 187.5557,160.97161 C 191.79474,153.40132 194.78366,146.67978 195.36799,141.89891 C 213.87879,150.46669 230.28601,166.28959 240.29513,185.30208 C 248.34469,200.55953 252.21425,222.56567 252.20362,241.45304 C 252.20362,243.13638 252.17293,244.79728 252.1139,246.42868 C 252.09265,246.98113 252.07259,247.70594 252.07494,248.55941 C 252.08203,249.76584 252.13161,251.26857 252.25556,252.92947 z M 154.62558,210.19091 C 155.45899,210.50609 157.15885,211.2545 158.58957,211.83883 C 157.34182,212.62856 155.85562,213.56349 154.89119,214.1667 C 154.94431,213.75236 154.98209,213.32857 154.98209,212.87882 C 154.9809,211.96633 154.83807,210.95821 154.62558,210.19091 z M 181.1222,168.74141 C 182.91531,168.5667 184.63525,167.8714 185.86174,166.64845 C 187.91338,172.97335 188.76804,180.65461 188.75151,186.63364 C 188.76332,189.99441 188.66061,193.52871 188.43396,195.56972 C 187.15199,197.23535 185.68349,199.00841 184.01432,200.89006 C 184.24451,198.5374 184.38381,195.71611 184.38617,192.60441 C 184.36729,185.00579 183.57165,175.90798 181.1222,168.74141 z M 174.81028,162.11076 C 174.82326,155.89446 185.60204,155.89446 185.60086,162.11076 C 185.58788,168.3247 174.82326,168.3247 174.81028,162.11076 z M 179.98423,173.48803 C 181.41849,179.52609 181.98157,186.58288 181.9674,192.60441 C 181.97094,196.57076 181.73014,200.11804 181.38426,202.60763 C 180.14596,205.74529 175.76645,209.08599 173.79272,209.82732 C 172.10584,210.46242 166.21298,211.03611 160.79231,210.42464 C 160.78994,210.427 160.77696,210.43526 160.77225,210.4388 C 159.23882,209.91114 156.77165,209.04586 154.70467,208.05428 C 161.51357,199.88313 171.21223,186.99958 179.33144,174.50913 C 179.551,174.16797 179.76585,173.82919 179.98423,173.48803 z M 172.27937,213.58001 C 169.595,216.31868 161.01069,225.24768 156.48953,229.95535 C 156.46239,229.47491 156.00555,221.41826 155.55225,217.73523 C 159.0169,215.63165 161.70599,214.03802 161.70599,214.03802 C 163.74582,214.18912 170.01289,214.25996 172.27937,213.58001 z M 186.34574,158.14442 C 185.47809,157.03478 184.1607,156.17422 182.79373,155.7469 C 182.45376,155.29242 182.20232,154.9312 181.85408,154.48852 C 185.08618,148.41033 187.3562,143.01445 188.0149,138.91354 C 189.69942,139.49785 191.37568,140.12469 193.03304,140.8306 C 192.90673,144.52189 190.3109,150.80667 186.34574,158.14442 z M 165.4693,138.65855 C 164.61936,138.01284 163.85207,137.45095 163.18983,136.97757 C 166.12326,136.29409 169.04254,135.97773 172.35138,136.14063 C 171.0753,137.94673 168.5621,138.96665 165.4693,138.65855 z M 167.52447,143.3804 C 171.23112,146.4673 175.61889,150.60954 179.51677,155.45533 C 177.67879,155.59226 175.89866,156.27929 174.62612,157.51404 C 167.27067,148.34895 157.87539,142.07008 154.80265,140.14002 C 157.12816,138.6916 158.96496,138.00812 159.9955,137.69883 C 161.27157,138.55231 164.08226,140.50952 167.52447,143.3804 z M 174.68633,166.75823 C 175.72396,167.73683 177.08266,168.35893 178.53344,168.62926 C 178.74002,169.18879 178.93835,169.76133 179.12485,170.3551 C 178.52519,171.29946 177.92197,172.24383 177.30223,173.19291 C 169.08032,185.84628 159.35333,198.81835 152.60345,206.86201 C 151.24356,205.51983 149.43392,204.70058 147.52157,204.40901 C 154.33638,196.24141 163.91462,183.44522 172.07869,170.88276 C 172.97348,169.4969 173.83168,168.12639 174.68633,166.75823 z M 266.0209,254.44755 C 266.07874,254.47234 266.11062,254.48532 266.13187,254.4924 C 266.13541,254.49122 266.14958,254.48768 266.14958,254.48768 C 266.14958,254.48768 266.18499,254.51011 266.13187,254.4924 C 265.36811,254.67538 184.91147,273.89445 145.3271,267.82688 C 145.3271,266.35603 146.16168,257.00797 146.3836,255.39073 C 176.53846,257.25823 221.55415,256.74001 266.0209,254.44755 z M 280.28913,251.73012 C 280.81207,254.29055 281.62777,256.78839 282.74448,259.15051 C 282.88142,259.44089 283.09627,259.99099 283.3654,260.59539 C 282.56269,260.52809 281.76234,260.44429 280.96671,260.33805 C 279.8984,260.1952 279.11694,260.19049 278.40393,259.34646 C 277.84439,258.6854 277.35451,257.96768 276.9437,257.2051 C 276.14099,255.71772 275.6452,254.08869 275.29932,252.44076 C 274.39745,248.15333 274.30892,243.72188 274.52849,239.36009 C 274.6784,236.38178 274.7693,232.80617 275.94032,229.9341 C 276.94843,232.70583 278.17138,235.83759 279.63516,239.16413 C 279.35893,243.36538 279.4451,247.60088 280.28913,251.73012 z M 280.45558,293.95283 L 276.96259,274.89194 L 302.15834,271.76372 L 303.79682,273.34672 L 305.78826,289.2971 L 280.45558,293.95283 z M 306.08927,291.70051 L 307.04899,299.38649 L 282.2841,303.93717 L 280.89117,296.33028 L 306.08927,291.70051 z M 283.67705,270.39792 L 284.90001,269.0038 C 285.77355,267.3488 286.37676,265.33494 286.75215,263.40251 C 289.25709,263.70236 291.90368,263.73423 294.40154,263.48633 C 294.50895,263.61147 294.61048,263.74249 294.72026,263.86762 C 295.74843,265.13661 296.75655,266.36902 297.86854,267.61794 L 298.78695,268.50565 L 283.67705,270.39792 z M 291.28394,261.15847 C 290.05744,261.17263 288.82976,261.15138 287.6068,261.05812 C 286.31656,260.96015 286.19969,260.56115 285.60474,259.45033 C 284.73002,257.82248 284.00876,256.11318 283.45512,254.35075 C 282.47298,251.22961 281.9642,247.38367 281.83789,243.90958 C 284.64149,249.64071 288.13801,255.64217 292.44551,261.10888 C 292.05832,261.12895 291.67113,261.15492 291.28394,261.15847 z M 268.97206,255.68821 C 269.42299,255.35887 271.98106,254.92445 273.41885,254.79696 C 273.48968,255.03542 273.53808,255.28095 273.61598,255.51586 C 274.10588,257.0115 274.7752,258.44813 275.66881,259.74663 C 275.69713,259.78795 275.73019,259.83871 275.76089,259.88357 C 274.70791,259.89419 274.01027,259.86704 273.09422,259.86704 C 270.7333,259.86704 270.01086,259.81392 269.46313,259.58018 C 268.6498,259.23195 268.17642,258.48709 268.08789,257.40106 C 268.03477,256.75535 268.43967,256.07776 268.97206,255.68821 z M 265.48497,252.71935 C 264.95496,252.54701 263.6588,251.97921 263.6588,250.35489 C 263.6588,249.16852 264.45443,248.25957 265.69156,248.05535 C 268.10206,247.80509 270.94579,247.64809 272.18408,247.60442 C 272.30568,249.28068 272.51934,250.9581 272.86167,252.60485 C 271.85002,252.67922 270.55387,252.86101 269.5316,252.87872 C 268.41724,252.8976 266.35144,253.00148 265.48497,252.71935 z M 269.21051,229.07237 C 267.89902,213.57883 264.26084,199.82293 259.81876,189.38412 C 256.66812,181.98027 252.11153,173.19056 247.62815,167.73566 C 251.83531,170.66792 260.10798,173.83273 263.47583,175.0427 C 266.50253,191.85482 269.84088,211.41504 275.00421,227.30995 C 275.0833,227.5366 275.17183,227.78213 275.25329,228.01586 C 273.57585,228.2248 271.34596,228.57067 269.21051,229.07237 z M 272.97735,230.96229 C 272.76133,232.0424 272.68107,233.31376 272.60079,233.87213 C 272.46267,234.84482 272.35172,235.82342 272.26554,236.80556 C 270.69789,236.8705 267.52127,237.16561 266.95465,237.21519 C 265.72106,237.3238 264.63032,236.8091 264.38479,235.84704 C 264.17348,235.01717 264.58192,233.8072 264.93725,233.30196 C 265.29374,232.79673 266.27943,232.29149 268.37829,231.83111 C 270.28119,231.4144 271.61156,231.15706 272.97735,230.96229 z M 265.42478,239.76734 C 266.3656,239.59854 269.99669,239.30106 272.10736,239.22433 C 272.01056,241.20278 271.99994,243.18595 272.06013,245.15732 C 270.23515,245.26829 267.24386,245.58938 265.05765,245.67201 C 264.06252,245.73575 262.64007,244.99914 262.61528,242.91799 C 262.5893,240.71053 264.94196,239.8547 265.42478,239.76734 z M 265.57942,256.49447 C 265.53692,256.76361 265.51803,257.04102 265.54164,257.32432 C 265.69156,259.16466 266.69141,260.6367 268.12095,261.59051 C 268.17879,261.62947 268.24843,261.66252 268.31454,261.69675 C 268.30155,261.73334 268.28385,261.76995 268.27441,261.80535 C 267.46815,264.27252 265.84738,267.97563 263.06739,271.95968 C 262.87143,272.24063 262.66368,272.51922 262.46182,272.79898 C 258.58872,269.16552 256.54771,263.87825 255.51244,258.87546 C 260.21186,257.80831 263.70248,256.95957 265.57942,256.49447 z M 266.56038,270.94566 C 268.22128,268.22942 269.69449,265.3798 270.64123,262.23268 C 270.64595,262.2138 270.64713,262.19845 270.65067,262.17957 C 271.21021,262.21616 271.84294,262.23268 272.57483,262.23268 C 274.03033,262.23268 275.78214,262.24331 277.95653,262.22441 C 278.01085,262.24449 278.06396,262.274 278.11826,262.28698 C 279.76028,262.66827 281.43889,262.71786 283.09862,262.86306 C 282.91565,264.30439 282.34313,266.09279 281.93469,267.06076 L 278.44406,271.0519 L 276.51284,271.29389 L 272.70349,271.77081 L 273.39524,275.54591 L 273.59002,276.6036 L 272.45088,277.90684 C 265.41532,285.47831 255.20199,293.51489 247.01549,303.06952 C 246.66136,299.24365 250.57931,292.23763 254.22575,287.26316 C 258.38332,281.59224 263.01545,276.74172 266.56038,270.94566 z M 273.13908,282.40203 L 274.39037,280.97603 L 280.22066,312.79417 C 269.34508,322.39249 249.14977,346.59074 244.94025,351.67144 C 240.44033,350.13094 235.74682,347.45483 232.12871,342.88882 C 239.9953,307.18934 258.89446,297.39152 273.13908,282.40203 z M 246.81127,352.25459 C 249.06595,349.53953 254.10415,343.52036 259.93563,336.84132 C 266.87201,328.89918 274.93456,320.03983 280.60195,314.88003 L 284.18465,334.42846 L 283.1907,335.11431 C 272.74716,342.3706 262.7404,349.30462 258.12009,353.54011 C 255.79458,353.71127 251.51187,353.56726 246.81127,352.25459 z M 283.95917,339.13141 L 284.92244,338.45855 L 286.48418,346.97911 C 282.3384,347.13375 277.99077,346.97321 273.57821,346.28264 C 276.35347,344.43285 280.78257,341.22083 283.95917,339.13141 z M 282.72088,306.31579 L 307.34882,301.79109 L 323.77847,433.36048 C 323.77847,433.36048 326.44749,454.94874 320.50623,466.06278 C 311.0897,455.51654 306.68541,437.11081 306.68541,437.11081 L 282.72088,306.31579 z M 313.15314,318.76612 C 320.19814,313.72318 325.91275,309.24097 329.72562,304.25589 C 331.75012,301.6093 333.57393,297.48949 334.29283,294.82519 C 335.51933,295.48034 339.8764,297.89911 340.43004,298.15055 C 340.30373,301.06156 339.49394,306.11275 338.73372,309.44166 C 336.08359,321.0503 329.13422,334.0696 315.86821,340.70024 L 313.12718,318.73778 C 313.13426,318.74487 313.15314,318.76612 313.15314,318.76612 z M 312.66561,314.79623 L 312.63728,314.81629 L 309.47955,289.52021 C 309.94348,289.702 310.37434,289.87435 310.51127,289.94045 C 312.51097,290.90606 314.33479,292.26595 315.68523,294.04255 C 319.60082,299.19762 318.46875,306.53654 316.19519,312.20511 C 314.95335,313.15656 313.754,314.03011 312.66561,314.79623 z M 328.43893,299.68869 C 326.4109,303.16868 322.96395,306.62153 319.44381,309.59511 C 320.86981,304.87446 321.31838,299.77368 319.20064,295.23009 C 317.27767,291.10439 313.44472,288.1674 309.14431,286.83584 L 307.96384,277.37327 L 308.01578,277.42285 C 314.26159,282.70423 322.51065,288.38578 330.94858,293.18908 C 330.45751,295.05892 329.47537,297.91092 328.43893,299.68869 z M 316.18456,343.23942 C 318.47112,342.37885 320.61366,341.18069 322.60981,339.75351 C 320.8769,347.6626 319.57603,355.94117 318.7497,363.79005 L 316.18456,343.23942 z M 323.48454,348.09583 C 326.52658,350.43314 334.11695,356.22448 338.82698,359.63719 C 342.9822,362.65209 347.64147,365.93495 352.57816,369.278 C 349.97642,370.48325 348.10421,373.13929 348.10421,376.12231 C 348.10421,376.24626 348.11838,376.36667 348.12429,376.48943 C 337.40216,369.23906 328.06826,362.30149 321.92042,357.59381 C 322.39261,354.34046 322.92027,351.13079 323.48454,348.09583 z M 349.59868,380.53487 C 350.74844,382.08246 352.46247,383.198 354.40079,383.53915 C 355.22594,384.07272 356.05815,384.60393 356.89392,385.13632 C 355.31328,389.20064 353.58392,393.37121 351.65976,397.66099 C 350.00711,401.34521 346.54246,404.27276 343.28204,405.81679 C 342.42856,400.89545 342.66702,397.02945 343.99976,394.05468 C 346.08208,389.40604 347.93305,384.90022 349.59868,380.53487 z M 355.63792,381.23844 C 352.88036,381.23844 350.52179,378.88105 350.52179,376.12231 C 350.52179,373.36358 352.88036,371.00738 355.63792,371.00738 C 358.39665,371.00738 360.75403,373.36358 360.75403,376.12231 C 360.75403,378.88105 358.39665,381.23844 355.63792,381.23844 z M 363.16689,376.2321 C 368.85907,379.84903 374.72832,383.37979 380.53736,386.55641 C 384.63238,388.80047 388.58457,390.83793 392.4187,392.69008 C 390.43316,394.06649 389.09452,396.35894 389.09452,398.88278 C 389.09452,399.46238 389.17243,400.02782 389.30464,400.57556 C 385.1447,398.57821 380.87734,396.38492 376.4754,393.98032 C 370.34881,390.62664 364.20097,386.92353 358.2727,383.14724 C 361.06094,382.06003 363.11849,379.33081 363.16689,376.2321 z M 390.14159,403.64357 C 390.56301,403.84071 390.98561,404.04138 391.4035,404.23498 C 392.68312,405.48509 394.38534,406.29253 396.2363,406.39522 C 396.78758,406.63131 397.3306,406.84734 397.87951,407.07635 C 396.45705,410.65669 394.96377,414.23584 393.36188,417.80792 C 391.71042,421.49095 388.24577,424.4185 384.98416,425.96372 C 384.13186,421.04119 384.37032,417.17636 385.70306,414.20161 C 387.27898,410.68502 388.74628,407.16252 390.14159,403.64357 z M 396.62822,403.99771 C 393.86949,403.99771 391.5121,401.64151 391.5121,398.88278 C 391.5121,396.12404 393.86949,393.76665 396.62822,393.76665 C 399.38577,393.76665 401.74433,396.12404 401.74433,398.88278 C 401.74433,401.64151 399.38577,403.99771 396.62822,403.99771 z M 404.16191,398.88278 C 404.16191,398.53218 404.12651,398.18748 404.07692,397.84751 C 416.4387,402.80073 427.38393,405.37176 437.15815,405.35287 C 445.17466,405.3458 452.45218,403.67663 459.45468,400.21079 C 459.48301,403.50074 459.12887,406.84379 458.6437,409.82564 C 451.84543,412.49466 444.69892,413.8156 437.22188,413.8156 L 437.15815,413.8156 C 425.70768,413.79789 413.55838,410.85737 400.24515,405.44496 C 402.55295,404.13582 404.16191,401.64977 404.16191,398.88278 z M 382.5831,317.88667 C 391.1674,320.5427 399.04108,324.42878 405.19954,327.97134 C 405.17003,328.79884 405.11219,329.91319 405.00004,331.31794 C 404.45939,338.08907 402.16458,354.03826 397.75202,372.11583 C 396.39921,377.66282 394.6781,383.67372 392.54146,390.06237 C 389.03786,388.34953 385.43037,386.4844 381.69657,384.4363 C 375.65616,381.13337 369.53075,377.43734 363.60839,373.6528 C 372.45239,347.01689 374.26203,326.60437 374.45682,315.85982 C 377.20965,316.404 379.94359,317.06978 382.5831,317.88667 z M 372.04395,315.41478 C 371.89875,325.12407 370.34646,345.18835 361.69367,371.73219 C 360.35503,369.91546 358.23846,368.68896 355.89643,368.60278 C 355.31801,368.2156 354.73958,367.82841 354.16825,367.44121 C 362.01831,342.73182 363.55172,323.32386 363.68865,314.29453 C 366.41316,314.56367 369.22501,314.92843 372.04395,315.41478 z M 361.17664,314.07142 C 361.14595,322.651 359.95132,341.09451 352.09418,366.03175 C 347.86104,363.13607 343.86637,360.30651 340.24352,357.67999 C 335.43079,354.19055 327.09792,347.81724 323.99922,345.42799 C 324.61778,342.33282 325.26703,339.50207 325.91983,337.06678 C 333.78523,329.8825 338.7656,319.44488 340.12784,313.88963 C 342.0461,313.71846 350.73429,313.23447 361.17664,314.07142 z M 389.34715,141.66047 C 391.76,161.88647 395.18098,180.4197 396.72147,197.81024 C 400.0244,235.12224 394.66984,267.17645 352.13904,299.41837 C 300.17634,277.5468 283.62865,247.77913 275.0349,214.60347 C 270.74039,198.02154 268.43259,180.58968 264.68345,162.86626 C 267.69243,162.35511 298.96165,156.96277 329.4553,151.79354 C 358.55837,146.86157 386.95317,142.13147 389.34715,141.66047 z M 301.38986,105.66351 C 307.68053,85.498881 317.01798,78.501113 346.474,78.590828 C 367.51452,104.91982 344.18745,129.65164 348.92936,144.65884 C 345.03856,145.33524 340.69919,146.07066 336.65257,146.77422 C 334.74849,146.38821 332.6756,145.52883 331.15398,144.76389 C 325.66366,141.99925 321.88029,138.09783 321.43408,136.98938 C 320.36812,127.0688 335.76014,107.12491 309.16673,108.10705 C 301.23639,108.39981 300.7772,107.7966 301.38986,105.66351 z M 297.80598,121.15469 C 299.57076,118.00994 302.4511,113.49232 303.97861,111.12313 C 304.12498,111.11488 304.25956,111.10779 304.40003,111.09717 C 304.7105,111.33326 305.14254,111.60595 305.73277,111.868 C 305.32906,112.89736 305.11894,114.92775 306.54139,115.6077 C 307.9839,116.29591 309.3804,115.60653 310.2622,114.69285 C 311.7661,114.92304 313.21335,115.26064 313.1378,114.98678 C 313.03392,114.60313 310.92798,112.53142 309.84195,111.8621 C 309.28714,111.51977 308.41124,110.86225 308.0571,110.6238 C 325.28237,110.13273 323.65806,115.49675 321.2027,125.2804 C 319.95614,130.24777 317.77818,135.79947 319.80504,138.99263 C 313.43882,141.52235 308.02168,142.8362 304.39177,143.15139 C 299.91546,143.54094 297.48253,140.95809 299.8222,136.21145 C 300.40889,135.02037 299.79741,134.10434 299.55188,133.28746 C 299.26385,132.32774 299.62862,132.18845 300.03469,132.19908 C 303.4899,132.29233 304.6432,132.62876 307.9296,134.4809 C 309.4288,135.32729 310.40149,135.24939 311.02242,134.70519 C 311.32462,134.44077 311.46509,133.24733 310.65884,131.86619 C 309.58225,130.02112 308.12202,128.13711 305.96886,125.56135 C 305.16851,124.604 304.16748,124.24395 303.713,124.19319 C 303.0791,124.12354 298.91561,124.23569 297.92403,123.98661 C 297.12603,123.78711 297.00445,122.5854 297.80598,121.15469 z M 307.85524,113.72723 C 307.85524,113.20074 308.19757,112.77578 308.62136,112.77578 C 309.04632,112.77578 309.3863,113.20074 309.3863,113.72723 C 309.3863,114.25489 309.04632,114.68104 308.62136,114.68104 C 308.19757,114.68104 307.85524,114.25489 307.85524,113.72723 z M 297.96653,128.85601 C 298.39149,126.77958 298.67598,126.61904 298.9947,126.38531 C 299.31342,126.15158 303.67051,126.36641 304.41301,126.43725 C 304.82736,126.4703 305.21691,126.89763 305.59938,127.2919 C 307.33112,129.08856 309.0357,131.2795 309.66843,132.61106 C 310.17131,133.66756 309.69203,133.81158 309.06049,133.54716 C 307.96975,133.09032 305.33377,131.4117 303.91958,130.99618 C 303.3447,130.82974 301.49373,130.64795 299.67229,130.60899 C 297.84848,130.57004 297.63835,130.47324 297.96653,128.85601 z M 299.30988,144.58919 C 300.73352,145.35766 302.7828,145.77791 305.43647,145.43794 C 310.79813,144.75208 318.889,142.12793 321.56157,140.86247 C 324.69687,143.99777 329.70202,146.88755 331.76783,147.7056 C 328.32206,148.30409 316.29671,150.36872 303.06966,152.63756 C 301.84433,150.9377 299.2851,147.54978 296.38943,144.76744 C 297.42469,144.66474 298.42218,144.59981 299.30988,144.58919 z M 291.618,145.48516 C 292.14685,145.37773 292.69105,145.27857 293.24232,145.18768 C 295.09565,146.72936 297.01625,148.83884 298.54849,150.71695 C 299.26385,151.59168 299.89304,152.40737 300.40772,153.0944 C 295.89245,153.8676 291.29928,154.65615 286.90679,155.4081 C 287.27274,154.29139 287.84407,152.76624 288.53819,151.26233 C 289.44478,149.22604 290.56858,147.08113 291.618,145.48516 z M 283.42207,148.05738 C 284.57656,147.58637 286.4712,146.89816 288.28439,146.34099 C 287.58909,147.60408 286.92568,148.9557 286.33191,150.27428 C 285.35331,152.51361 284.58719,154.44249 284.24839,155.86377 C 282.37028,156.18603 280.54411,156.49885 278.78876,156.79987 C 279.31171,155.03389 280.40009,152.86539 281.49556,151.05338 C 282.20266,149.86702 282.89558,148.82113 283.42207,148.05738 z M 249.62077,131.8532 C 261.508,135.05343 275.17066,143.31901 281.01629,147.29953 C 279.40378,149.67815 276.88704,153.77199 276.2071,157.24136 C 267.24859,158.77596 260.74425,159.89031 260.34997,159.95523 C 260.96853,162.93944 261.84562,167.16667 262.54917,170.6266 C 258.71858,168.89132 251.37375,166.63074 243.72673,161.58192 C 242.31372,160.62101 236.24025,154.4295 232.99871,151.37566 C 233.65032,147.29599 237.71465,142.22826 241.95604,138.2631 C 244.2721,136.06508 246.60115,134.16453 248.34823,132.81645 C 248.8216,132.45052 249.24657,132.13061 249.62077,131.8532 z M 283.86002,49.536157 C 283.86002,49.536157 454.35037,52.933522 457.77371,53.503684 C 461.76129,54.168283 475.51366,58.690627 475.51366,58.690627 C 475.51366,58.690627 461.57243,63.482115 458.17506,63.881111 C 454.94296,64.260039 283.86002,69.248664 283.86002,69.248664 L 283.86002,49.536157 L 283.86002,49.536157 z M 272.69286,49.989454 L 277.54338,27.378916 L 281.63368,27.437939 L 281.66318,90.744843 L 276.90238,90.715337 L 272.46976,67.23834 C 280.4426,57.851319 277.36276,55.587196 272.20888,53.54618 C 272.28207,52.645489 272.64919,50.798069 272.69286,49.989454 z M 263.48527,40.947127 C 264.3659,40.6225 265.93827,40.649651 266.65009,40.947127 C 269.04288,41.949339 269.23294,49.448802 269.0901,52.310239 C 266.88264,50.977498 263.44514,47.766646 262.72742,47.691096 C 262.34259,45.617028 260.93194,41.890314 263.48527,40.947127 z M 263.31883,50.272764 C 264.64095,50.284568 265.97487,53.566248 273.27601,56.609475 C 275.45986,57.518429 274.92748,60.738726 270.08051,66.488748 C 269.15385,67.586576 265.56052,74.397833 258.15668,74.171184 C 247.3047,73.838294 250.85199,66.292791 253.64142,64.829021 C 259.71488,61.639417 262.03568,64.041654 262.99774,64.741666 C 263.64228,65.164272 264.25139,65.325995 264.75546,65.498342 C 266.0398,65.936293 267.19311,65.710824 265.91112,65.043864 C 264.48277,64.296633 264.16522,63.012292 266.09645,62.465739 C 267.23205,62.145835 268.26024,61.816485 268.81623,61.509566 C 269.53277,61.111751 270.04155,60.382226 269.5375,59.979689 C 269.03344,59.577153 266.89916,60.137872 266.23575,59.627913 C 259.31117,54.3123 261.66264,50.256238 263.31883,50.272764 z M 253.3038,43.959661 C 253.83502,41.682553 258.65365,41.43938 259.36547,43.951399 C 260.04895,45.651262 260.61558,47.986212 260.76549,48.940025 C 259.4363,50.649331 259.01724,54.69831 262.01443,58.239691 C 263.38021,60.250015 261.92707,60.769418 260.42199,60.821357 C 259.49296,60.85323 258.23341,59.787275 257.11669,58.099216 C 254.69321,54.435067 252.25556,48.450133 253.3038,43.959661 z M 250.80713,45.287679 C 252.29334,56.123126 254.81716,58.278646 256.34349,60.312579 C 258.0351,62.014803 253.19756,62.792727 251.28168,61.403325 C 248.67286,59.508686 245.76656,53.149546 245.76656,49.390961 C 245.76656,45.08346 249.75652,44.150897 250.80713,45.287679 z M 243.31947,49.54442 C 245.26841,58.466339 249.06241,61.953419 249.06241,61.953419 C 249.06241,61.953419 251.63936,64.176226 247.52427,64.618899 C 246.22105,64.759374 242.37038,63.680433 238.91046,56.517399 C 236.35948,51.2372 241.06362,48.5186 243.31947,49.54442 z M 224.05553,62.234368 C 224.25032,61.310068 224.5112,59.887613 224.5112,58.899568 C 224.5112,57.817086 224.37544,56.771198 224.14171,55.764265 L 224.83936,55.766626 L 236.09623,55.812664 C 236.42795,57.356706 238.22933,60.458956 239.34486,62.158819 L 224.05553,62.234368 z M 239.54672,73.818226 C 239.54672,73.818226 241.86868,73.617548 243.38321,73.448742 C 247.21027,73.020235 241.25366,72.846707 239.94926,72.206897 C 238.23523,71.364049 236.56251,69.501282 236.88125,65.841855 L 243.25809,65.821788 C 244.70179,66.603252 246.41109,67.036482 247.55496,67.320972 C 246.85023,71.652081 249.67507,76.523842 258.45062,76.447111 C 258.79413,76.443569 259.63579,76.440029 259.96161,76.4176 C 257.40591,79.704001 251.01017,90.416681 251.80227,104.76635 C 248.82632,105.05675 245.76185,105.20902 242.74341,105.20902 C 239.83003,105.20902 236.96859,105.08036 234.29603,104.84073 C 229.79139,104.46534 223.54204,102.41369 221.46797,101.27455 C 233.96078,80.727461 239.54672,73.818226 239.54672,73.818226 z M 222.44303,105.29166 L 222.83849,104.51255 C 225.91712,105.69538 230.30607,106.89001 234.08119,107.24769 C 236.83166,107.4944 239.76038,107.62543 242.74341,107.62543 C 244.53535,107.62543 246.345,107.57349 248.14637,107.47551 L 248.10506,107.6939 C 247.44163,112.93042 244.9851,119.79834 244.0726,122.22655 C 236.04902,126.75479 229.35227,127.89984 224.59973,127.9022 C 222.07355,127.9022 220.09627,127.57993 218.76117,127.26357 C 218.09185,127.1042 217.58661,126.9472 217.25608,126.83388 C 217.17109,126.80437 217.10027,126.77958 217.04124,126.75833 C 217.15575,115.33502 219.83893,110.77845 222.44303,105.29166 z M 216.41796,129.10155 C 217.59016,129.51117 220.4327,130.31978 224.59973,130.31978 L 224.62807,130.31978 C 229.72174,130.31978 236.77028,129.07794 245.03468,124.45997 C 246.45124,126.19643 247.4924,128.46882 248.08617,129.97981 C 246.26353,131.33734 243.28524,133.66993 240.29159,136.51011 C 236.29219,140.35488 232.16176,145.01651 230.88686,149.81862 C 225.73416,145.26205 220.77859,141.66872 214.79128,137.17944 C 214.65081,135.94113 215.70496,131.74459 216.41796,129.10155 z M 204.13881,134.91296 C 226.4259,146.84977 250.52264,166.96835 261.32975,204.41846 C 263.07212,210.45415 264.65629,219.4646 265.64551,230.12535 C 264.40132,230.61405 263.7804,231.10041 263.17127,231.80042 C 262.24816,232.86165 261.6473,235.02189 262.12775,236.79848 C 262.44529,237.97186 263.09573,238.50661 263.09573,238.50661 C 263.09573,238.50661 260.27206,239.54896 260.25318,242.81057 C 260.24137,244.92596 260.98861,246.1194 262.66249,247.07912 C 261.83499,247.55012 261.13144,249.05993 261.2365,250.28053 C 261.30733,251.16587 261.61307,252.07836 262.1006,252.66741 C 259.72788,252.7288 257.243,252.7949 254.66015,252.86455 C 254.53266,251.24024 254.48427,249.75994 254.49253,248.55941 C 254.49253,247.74017 254.50905,247.0496 254.52913,246.51958 C 254.58933,244.85866 254.6212,243.16825 254.6212,241.45304 C 254.61412,222.23751 250.75166,199.99055 242.43295,184.17592 C 230.60827,161.74363 210.19575,143.66961 187.55099,136.21854 C 189.61679,134.7229 191.58343,132.94749 193.16761,130.6326 C 196.68539,131.51323 200.15004,132.77632 204.13881,134.91296 z M 193.43912,116.98176 C 194.31738,134.23301 182.00165,135.67199 176.941,140.42807 C 177.74726,129.80037 187.21337,121.57257 193.43912,116.98176 z M 184.64705,116.78109 C 184.79698,117.97807 184.74266,119.78536 184.39207,121.56313 C 183.54922,122.38236 182.3605,123.55692 181.54952,124.4824 C 179.85084,124.26874 178.18049,124.12118 176.53965,124.03029 C 178.45199,120.02971 182.72172,117.39609 184.64705,116.78109 z M 151.48084,132.72202 C 157.0715,128.49125 167.34151,126.72882 178.90529,127.81131 C 177.86412,129.38368 176.42632,132.18845 175.68735,134.02289 C 166.57775,132.93213 158.07016,134.67331 151.23766,139.17088 C 151.13732,138.06241 151.14913,133.08323 151.48084,132.72202 z M 127.38056,169.16164 C 135.04883,158.98844 144.38391,148.60039 150.83158,143.07111 C 151.44779,142.54345 152.04391,142.07008 152.6247,141.63567 C 152.85489,141.77025 153.74024,142.30145 155.10367,143.21395 C 159.11841,145.88415 167.07826,151.76993 173.21783,159.62824 C 172.92744,160.36132 172.75628,161.18528 172.75274,162.11076 C 172.75628,163.03388 172.92744,163.8543 173.21547,164.58619 C 172.19083,166.23765 171.14022,167.89855 170.05066,169.56537 C 161.82167,182.2317 152.08406,195.21441 145.33418,203.25806 C 138.60555,199.81466 132.28065,195.61341 127.30855,191.95752 C 121.9162,187.99235 118.13283,184.71185 117.04209,183.74977 C 120.17739,179.01613 123.63732,174.12903 127.38056,169.16164 z M 115.70462,185.79434 C 118.40434,188.15408 129.6435,197.70282 142.9048,204.7301 C 140.50374,205.45136 138.42849,207.06624 137.45107,209.57352 C 133.24981,207.16657 129.25158,204.52116 125.74208,201.97844 C 121.66949,199.02966 118.22963,196.24023 115.80969,194.18977 C 114.06733,192.71301 112.87624,191.63761 112.33913,191.14536 C 113.40626,189.39119 114.53125,187.60398 115.70462,185.79434 z M 137.15596,215.56318 C 135.28729,216.2455 131.9513,218.02681 129.53372,219.77388 L 127.81733,217.33978 C 131.0695,216.05425 135.0866,215.37313 137.08866,215.29759 L 137.15596,215.56318 z M 111.36407,231.01187 C 107.78845,238.71792 98.990488,224.01055 99.236023,221.83733 C 100.047,214.63652 104.3486,204.64157 111.07486,193.25957 C 113.84658,195.75978 124.38219,205.01223 136.89035,212.05603 C 136.8691,212.32518 136.84903,212.5955 136.84903,212.87882 C 136.84903,212.98506 136.86084,213.08186 136.86437,213.18574 C 134.62976,213.28844 130.35059,214.05927 128.38868,214.59166 C 115.9478,217.9666 113.15955,227.14231 111.36407,231.01187 z M 138.05901,224.91715 C 136.54919,224.30921 134.37242,223.67412 133.24272,223.83231 C 131.71167,224.04833 141.39381,229.26715 136.39809,233.74699 C 134.39957,235.53893 122.23375,236.89056 122.14285,233.22759 C 122.02599,228.4786 130.7614,221.4761 137.95277,217.24298 C 139.10253,219.24622 141.0373,220.53646 143.20345,221.11607 C 141.28166,222.71323 138.64097,224.65155 138.05901,224.91715 z M 139.26661,212.87882 C 139.28314,204.53769 152.56332,204.5365 152.5645,212.87882 C 152.54561,221.22349 139.28314,221.22468 139.26661,212.87882 z M 130.85347,280.77653 C 132.26058,272.31027 136.70266,260.40061 144.50903,249.23818 C 143.85861,256.25955 143.06534,263.01887 142.75016,269.87616 C 174.0595,275.4444 227.78933,265.06225 253.13382,259.4102 C 254.24109,264.80491 256.4875,270.63757 261.02047,274.74556 C 258.04454,278.65052 254.70855,282.48702 251.96162,286.27631 C 250.47897,288.31968 248.14283,291.73475 246.49137,295.51695 C 234.42943,299.3806 200.72846,309.08397 166.11028,310.77675 C 162.40717,310.955 158.6663,311.05534 154.90654,311.0518 C 140.74573,311.05534 126.3087,309.63289 112.61064,306.05373 C 116.6608,293.20442 123.71169,285.97057 130.85347,280.77653 z M 111.92952,308.37334 C 125.90263,312.03159 140.56512,313.47174 154.90654,313.47174 C 158.70998,313.47174 162.48863,313.3714 166.22715,313.1908 C 202.41534,311.41657 234.58407,301.82768 245.45257,298.27568 C 244.64985,300.82075 244.28864,303.42131 244.8222,305.80584 C 243.95338,306.92963 242.67494,308.88329 241.38705,310.93729 C 228.30047,315.00871 198.80078,323.07951 166.1091,324.67667 C 162.406,324.85492 158.6663,324.95526 154.90535,324.95526 C 139.79782,324.95526 124.36212,323.36991 109.85781,319.23357 C 110.3359,315.24007 111.03945,311.63613 111.92952,308.37334 z M 20.329331,389.1239 C 21.650266,380.1772 22.129534,371.51144 22.445896,370.59068 C 25.576477,361.461 38.73625,356.72618 48.739471,317.0568 C 49.273039,314.94142 49.627177,313.51779 50.568004,312.11422 C 52.519305,309.20203 55.736058,307.16927 59.460411,304.75522 C 65.183283,301.04622 68.956035,300.51501 72.387633,301.98233 C 74.933885,303.07071 77.966488,304.68675 82.721382,306.57078 C 88.072409,308.69088 97.503107,311.61607 106.87123,314.03365 C 106.07442,319.49799 105.5987,327.37521 105.47475,332.20329 C 102.98398,330.80799 97.898561,327.63137 96.3557,327.11079 C 92.174509,325.69896 86.778624,326.82747 85.367974,327.33153 C 81.760488,328.62059 77.725675,331.38288 74.779246,335.10368 C 73.964727,334.80148 71.643943,334.03064 69.978313,332.77109 C 69.042208,332.06164 73.761689,328.67489 74.38143,328.01738 C 74.591552,327.79428 72.398257,328.15313 69.949981,329.09868 C 68.070689,329.82349 66.003703,331.81964 64.670963,333.3566 C 58.538472,340.42402 49.801885,358.47561 48.320407,364.69546 C 47.298129,368.18608 47.263895,371.54686 47.197789,373.24672 C 44.279691,376.66297 40.996831,381.20302 37.427119,384.42804 C 36.598436,384.52955 34.284734,384.66059 33.373418,384.40089 C 32.465644,384.14355 31.583841,383.50846 31.243868,383.56512 C 30.3538,383.87559 32.603758,385.15166 33.472577,385.45386 C 33.873933,385.59316 35.750865,385.76314 36.257282,385.84104 C 36.123891,385.95437 35.675315,386.27073 35.540743,386.3876 C 34.374448,387.38272 33.921151,390.24062 33.826714,393.64743 C 32.358223,393.63209 31.509471,393.97796 30.549757,394.38167 C 29.785999,394.70394 27.94094,395.55978 30.684329,395.45472 C 31.589742,395.4193 32.637991,395.30716 33.702766,395.49839 C 33.437163,399.59813 33.967189,402.80544 34.354381,405.57716 C 26.478349,411.37559 18.975342,412.75555 17.119659,412.98337 C 15.732618,409.04418 18.730988,399.96289 20.329331,389.1239 z M 72.35576,338.26141 C 66.74031,346.75365 59.220778,358.44138 50.924503,369.41849 C 51.272739,367.21102 52.187596,364.97641 52.609019,363.36862 C 53.901623,358.43311 60.076612,346.42429 64.006364,340.75218 C 64.941289,339.40646 67.607948,335.64197 68.285533,336.17908 C 69.009155,336.66071 70.409181,337.43273 72.35576,338.26141 z M 31.130544,434.731 C 26.365025,432.76434 19.495927,423.9652 17.531641,415.40332 C 18.820703,415.1389 22.051622,414.29133 24.511703,413.31863 C 27.675336,412.06852 31.439824,410.15145 34.860798,407.3632 C 35.361314,409.6108 40.426668,422.50614 40.7631,424.36183 C 38.647715,427.89377 35.852385,431.10462 31.130544,434.731 z M 64.693393,412.87123 C 64.973161,412.84054 66.166607,412.55723 66.601016,412.44391 C 70.548476,414.55929 84.392915,430.9913 73.400468,453.63725 C 64.107884,452.05071 55.054934,448.44323 50.023811,441.43955 C 54.360823,439.36548 58.50778,435.85479 60.587751,432.59436 C 65.17384,425.403 65.191546,416.7455 64.693393,412.87123 z M 178.60428,397.14041 C 182.93066,386.78895 182.85276,386.60953 186.8675,383.32903 C 188.9758,381.60556 187.05046,380.73437 181.41732,384.69836 C 177.85587,387.20448 172.86842,406.11545 168.89971,405.52641 C 165.66643,405.04713 155.07298,396.57969 134.88002,391.75043 C 123.85925,389.11565 101.45765,367.79299 94.271006,363.36036 C 93.311292,362.76895 90.236193,361.38545 85.76579,363.83963 C 81.957624,365.93022 68.937147,379.48899 62.834167,388.77331 C 61.837859,390.28902 60.323328,392.06916 60.886407,394.87866 C 61.469554,397.79203 62.743271,401.39007 62.899093,402.66969 C 63.07262,404.10041 62.899093,407.28057 55.58496,407.74449 C 50.546754,408.06321 50.121789,408.66052 54.631148,409.44789 C 56.959016,409.85398 59.298688,409.043 59.45805,411.95401 C 59.55839,413.77782 53.475477,421.08724 56.269627,419.03559 C 57.180943,418.36627 59.166477,415.00432 62.413923,413.49097 C 63.030123,418.43001 62.686609,433.13501 48.48331,439.02787 C 46.762199,436.46981 45.912268,429.79903 45.233503,427.23861 C 43.209013,419.60221 40.777265,413.9608 38.062206,405.48509 C 36.646834,401.06426 37.434201,389.08023 38.53439,387.95289 C 71.978013,353.7042 72.589491,337.22615 85.677255,331.13969 C 89.041568,329.57559 94.013666,329.90966 96.053502,330.83749 C 97.912727,331.68389 102.36306,334.81092 105.38504,336.35969 C 128.90217,348.40629 151.52688,346.7926 156.17553,350.04477 C 161.42267,353.71246 163.90872,358.57714 165.44569,360.09167 C 169.72132,364.31063 161.10514,348.50309 157.75026,346.9862 C 150.54945,343.73167 130.80626,344.03387 109.14834,334.06134 C 109.07988,329.56615 109.24514,325.4546 109.59928,321.66532 C 124.26415,325.79339 139.76831,327.37284 154.90535,327.37284 C 158.70879,327.37284 162.48745,327.2725 166.22715,327.0919 C 197.19416,325.57264 225.21121,318.33406 239.46645,314.05135 C 237.89644,316.63656 236.6546,318.76139 236.6546,318.76139 C 233.58068,324.76049 231.31419,332.01678 229.13152,340.02029 C 225.27732,340.48894 216.89133,342.62439 212.55078,347.50323 C 210.74467,354.91771 213.23544,362.18581 214.23175,364.9233 L 187.70799,400.73491 C 185.78619,399.99713 180.8802,397.61968 178.60428,397.14041 z M 211.24282,373.05193 L 187.9606,413.94663 C 187.82131,413.78963 186.84153,412.72131 186.69278,412.57493 C 185.82633,411.71673 184.80877,411.01437 183.68261,410.50913 L 211.24282,373.05193 z M 162.38593,427.20792 C 165.33354,426.38985 168.97172,426.02392 169.60327,425.95664 C 168.81708,426.89628 166.11501,430.79297 163.77652,434.94111 C 163.44126,435.53371 163.1131,436.13102 162.79319,436.72243 C 161.89249,435.18547 161.25032,433.50213 160.90799,431.75269 C 160.85841,431.4989 160.53379,428.82633 160.56448,427.75683 C 161.15943,427.56441 161.76737,427.37908 162.38593,427.20792 z M 137.10401,447.36074 C 138.63978,443.80519 140.69497,440.81627 143.04763,438.29952 C 143.2424,441.01459 144.03331,443.67653 145.36487,446.04571 C 142.62502,446.3904 139.799,446.82127 137.10401,447.36074 z M 148.00439,445.7376 C 146.8853,444.03538 146.11211,442.11949 145.72137,440.12216 C 145.45694,438.76935 145.33418,437.3469 145.45813,435.96694 C 147.08834,434.53858 148.81418,433.2991 150.57543,432.21779 C 150.57543,432.28036 150.57188,432.34528 150.57188,432.40785 C 150.57188,436.9054 151.86448,441.37817 154.27735,445.16627 C 152.38861,445.30674 150.25552,445.49326 148.00439,445.7376 z M 158.73358,444.81685 L 157.0715,444.97502 C 156.71027,444.48395 156.35732,443.98581 156.04095,443.46403 C 154.7578,441.34748 153.87363,438.99954 153.39909,436.57134 C 153.05085,434.78411 152.89031,432.92253 153.03904,431.10344 C 153.04967,430.97595 153.04849,430.88742 153.04022,430.81541 C 153.19132,430.73632 153.34242,430.6525 153.49352,430.57578 C 154.05542,430.28892 155.85326,429.45315 158.17994,428.58552 C 158.17994,428.59024 158.17994,428.59496 158.17994,428.59968 C 158.18349,432.36063 159.33681,436.09915 161.50058,439.17661 C 159.88099,442.32254 158.73358,444.81685 158.73358,444.81685 z M 179.71745,452.29625 C 179.71745,452.29625 167.79952,449.51153 161.50412,448.11269 C 163.9406,440.43734 170.19704,431.06802 172.98293,427.47234 C 174.75361,428.97861 177.0437,429.88992 179.55219,429.88992 C 180.09637,429.88992 180.9829,429.78251 181.83284,429.65029 C 182.13149,440.1859 179.71745,452.29625 179.71745,452.29625 z M 179.55809,426.5138 C 175.82193,426.5138 172.79522,423.48711 172.79522,419.75685 C 172.79522,416.02778 175.82193,412.9999 179.55809,412.9999 C 183.29189,412.9999 186.31858,416.02778 186.31858,419.75685 C 186.31858,423.48711 183.29189,426.5138 179.55809,426.5138 z M 202.52748,453.42949 C 197.56129,453.02341 188.14239,450.25877 184.05801,448.25671 C 184.23271,446.88501 184.58331,444.13691 184.73441,442.68022 L 202.41416,437.70929 C 202.27251,443.02255 202.78128,450.91274 202.52748,453.42949 z M 185.01536,439.7869 C 185.09563,438.88739 185.17,437.99142 185.23256,437.10844 L 223.35907,429.91944 L 185.01536,439.7869 z M 342.50648,491.33643 C 348.58821,513.22571 351.00579,537.55263 338.7113,557.10223 C 315.87765,522.44628 304.4685,471.33471 304.4685,471.33471 C 304.4685,471.33471 294.75568,471.28867 294.20085,471.25562 C 302.28229,510.8459 325.23516,549.69957 329.09054,567.04289 C 291.78917,559.56703 272.3163,511.08317 266.51552,484.18402 C 265.40942,479.05374 264.6433,474.95163 264.50283,471.82578 C 264.50283,471.73724 256.08851,471.90841 254.60585,471.96389 C 263.9315,521.19263 284.22124,545.29764 289.05641,562.82511 C 235.36672,553.15478 215.77343,465.36631 212.58028,434.79828 L 240.33054,427.04265 C 240.73898,428.48046 243.33481,436.7484 250.8154,443.66472 C 253.08896,435.88902 252.03835,430.21219 252.03835,430.21219 C 252.03835,430.21219 261.04526,427.06627 267.51418,420.16529 C 258.7717,417.10672 249.29732,418.09712 249.29732,418.09712 C 249.29732,418.09712 246.00502,411.48773 241.28435,406.85796 C 238.59763,415.39978 239.75094,424.06199 239.92329,425.2094 L 212.03373,429.80139 C 211.90152,429.21589 211.84486,428.04487 211.78701,427.45346 C 217.89117,420.45922 226.99252,410.76411 227.86134,410.32852 C 248.46155,403.91862 250.06934,385.02889 249.1356,371.70267 C 251.87309,366.53934 256.48515,361.20602 260.08201,356.83713 C 261.54815,355.05582 266.1,351.55694 270.80177,348.31185 C 275.79039,349.20901 281.89927,349.62807 286.93277,349.42974 L 303.11805,437.76478 L 303.13576,437.85922 L 303.15819,437.95483 C 303.34706,438.74219 307.88947,457.37694 317.80062,468.47799 L 321.257,472.34872 L 323.7041,467.77208 C 326.49352,462.55327 327.57247,455.45043 327.89119,449.01456 C 330.31114,455.25448 339.07488,478.16013 342.50648,491.33643 z M 249.56056,438.68435 C 245.90114,435.10992 243.42807,427.33424 243.10108,426.26592 L 248.94908,424.61917 L 248.71535,423.77514 L 242.7316,424.75256 C 242.65016,424.31343 241.40476,417.54821 242.42114,412.56432 C 243.81763,413.3505 247.89847,420.90072 247.89847,420.90072 C 247.89847,420.90072 256.99983,419.41924 262.64833,421.33041 C 257.75059,425.78429 249.06595,428.45567 249.06595,428.45567 C 249.06595,428.45567 249.91116,432.91898 249.56056,438.68435 z M 336.95477,443.60806 C 335.75306,443.65291 333.6908,443.5207 332.22113,443.70839 C 331.40661,444.28092 330.06088,445.25715 330.06088,445.25715 C 330.06088,445.25715 328.88632,443.6175 327.96792,441.68272 C 327.93959,440.55656 327.89473,439.50477 327.8428,438.54506 C 330.94504,438.71741 334.20784,438.47187 337.18141,437.58888 C 337.12476,440.34998 336.98192,442.52439 336.95477,443.60806 z M 360.3751,578.91715 C 373.17719,577.40852 377.60038,574.00643 388.29417,558.28623 C 402.69696,537.11586 407.29958,530.04963 404.57743,522.84764 C 403.26948,519.38417 398.50987,513.73566 394.56005,508.95598 C 410.98852,516.43656 426.99674,523.02234 426.60719,530.74137 C 426.55289,531.78608 426.05237,533.56622 425.72657,534.94263 C 416.93214,546.64336 402.36997,562.82865 392.96171,582.56949 C 388.94815,583.30373 385.79868,583.38164 382.6374,584.34726 C 379.72166,583.57759 378.33226,582.13271 378.33226,582.13271 C 378.33226,582.13271 376.81773,580.96405 377.63344,583.06528 C 378.01708,584.04389 378.82923,584.81236 379.58945,585.36246 C 373.30704,587.65609 369.18959,590.32512 366.0661,594.65622 C 360.42586,594.10259 350.60443,592.03678 345.36555,585.08623 C 349.1501,581.8919 353.5485,579.72103 360.3751,578.91715 z M 423.88977,543.49625 C 420.14299,554.39426 413.07675,570.14396 405.32939,578.31747 C 402.68752,580.94399 400.42221,581.4386 397.49703,581.80691 C 404.98824,566.31337 418.61075,550.24022 423.88977,543.49625 z M 336.50147,604.88019 C 335.96437,602.4815 337.81179,593.54895 343.35168,587.0517 C 350.20071,594.85926 360.66667,596.01965 365.13236,596.23567 C 362.74901,599.66256 360.72097,604.05033 359.36816,609.11214 C 352.66905,611.42938 337.10232,607.55275 336.50147,604.88019 z M 383.95007,619.33728 C 381.06385,619.72093 361.08928,618.37285 361.33245,615.05457 C 361.78575,608.85952 363.95072,601.75905 369.44103,595.81661 C 380.98004,604.22976 396.67072,607.63302 404.74507,605.64276 C 403.56933,610.49682 399.89455,617.21954 383.95007,619.33728 z M 426.70753,464.91301 C 425.21189,466.68015 423.39516,470.43638 427.99187,474.20559 C 434.34038,479.41378 461.91358,499.39897 463.95105,500.91704 C 465.05242,501.73392 465.74889,504.16331 464.88244,505.78527 C 460.61153,513.79351 452.48288,525.85899 445.11445,541.15303 C 438.91231,554.02123 433.09028,569.17244 430.71048,586.11559 C 430.28079,589.17652 430.84977,593.95739 429.91248,595.46838 C 427.78529,598.89525 413.41201,594.24188 407.48609,589.23082 C 406.29029,588.22153 406.20175,588.79288 406.63026,589.32408 C 407.80128,590.77841 409.3465,592.90324 409.13284,594.51811 C 408.99708,595.54747 408.18257,596.28998 406.22182,596.21325 C 404.57862,596.14714 402.09375,594.86163 401.22848,594.49922 C 397.35656,592.87491 397.04965,593.63158 398.86755,594.32924 C 401.22848,595.23583 405.23377,598.96962 404.89852,603.87444 C 391.5664,605.9544 374.89358,596.91562 371.60718,593.69887 C 373.08512,592.12295 374.9715,591.13373 376.27945,590.49745 C 386.25433,585.63751 393.40084,587.46131 404.5432,583.63426 C 409.54954,581.91433 427.48781,553.26692 429.26087,531.97731 C 430.89227,512.41354 376.33847,509.21923 353.11291,469.1721 C 329.4978,451.49353 349.83949,426.71684 333.43109,411.58689 C 331.42786,409.73828 330.42918,410.38872 331.58131,411.79111 C 336.27601,417.50572 337.17316,427.59747 337.20385,435.04027 C 335.20296,435.69779 333.08049,435.99763 330.98636,436.09206 C 329.88618,436.14165 328.78244,436.11685 327.67989,436.06019 C 327.53942,434.26471 327.40248,433.11258 327.37769,432.91544 L 320.08009,374.44253 C 320.37402,370.03941 320.88398,365.19479 321.53559,360.34193 C 327.8605,365.16174 337.08461,371.97418 347.58717,379.04396 C 345.87433,383.55922 343.95844,388.23385 341.79347,393.06664 C 339.6226,397.91479 340.27894,403.91862 341.47711,409.05598 C 346.24735,407.79762 351.60428,403.69078 353.86486,398.65022 C 355.73708,394.47729 357.42277,390.41887 358.97153,386.45843 C 364.31665,389.81684 369.82232,393.09379 375.31501,396.1016 C 379.6414,398.46253 383.8521,400.63811 387.96009,402.61775 C 386.59549,406.06352 385.11873,409.59191 383.49678,413.21356 C 381.32591,418.06053 381.98225,424.06553 383.18041,429.20172 C 387.95065,427.94335 393.30758,423.83652 395.56817,418.79713 C 397.21844,415.11646 398.72472,411.5255 400.12474,408.00891 C 413.32937,413.30092 425.507,416.20603 437.15579,416.23199 L 437.25258,416.23199 C 444.48644,416.23318 451.47477,415.03974 458.13492,412.61861 C 457.31096,416.73369 456.38548,419.69193 456.28043,420.00711 C 449.20828,441.11256 435.36621,454.67487 426.70753,464.91301 z M 443.80414,449.85977 C 454.03872,436.5005 460.80277,423.05624 462.82017,407.19322 C 470.05285,399.46355 481.61428,389.99155 493.3882,382.76358 C 494.48366,391.72565 485.85921,402.23528 475.38853,413.21238 C 466.08651,422.96535 455.35848,433.12792 451.05925,445.158 C 448.09275,453.46018 448.17184,465.22819 453.92777,473.21282 C 448.4823,469.03517 444.16889,460.79911 443.80414,449.85977 z M 488.43144,466.80175 C 485.25836,468.84158 482.32256,471.04196 480.57665,472.15159 C 475.11467,475.62568 470.09063,477.29721 465.18227,477.18034 C 460.4439,471.58733 459.73799,466.55739 461.15218,463.06912 C 462.56519,459.58086 466.75228,456.16815 472.22018,453.74821 C 468.93142,461.65022 474.60589,470.73032 488.43144,466.80175 z M 544.00161,396.32825 C 532.33394,417.16221 507.54309,436.30337 488.8694,442.83013 C 474.44416,447.87306 463.72086,451.60568 459.3874,458.18084 C 456.37958,462.7445 455.71971,471.12695 462.13197,476.87106 C 460.06851,476.49686 458.11604,475.78505 456.29931,474.77103 C 443.53026,451.71309 457.94369,433.58595 476.63747,415.32658 C 493.95717,398.4094 506.70143,380.25629 486.87796,368.9404 C 493.81552,364.38145 503.44336,360.24867 509.67382,361.96741 C 522.49245,365.50644 522.88908,383.44707 514.64239,393.62972 C 508.20887,401.57187 497.67326,410.31553 481.23182,417.82326 C 481.23182,417.82326 500.8971,415.35256 519.58615,401.64505 C 530.93864,393.31808 538.5408,381.1133 532.25721,364.85129 C 531.7024,363.56341 530.64471,361.56134 530.76511,362.12324 C 532.0046,368.9522 537.31077,384.48588 520.23776,397.97619 C 507.99875,407.64652 497.94241,411.04741 497.94241,411.04741 C 497.94241,411.04741 498.72506,410.68738 499.79455,410.18686 C 504.39717,407.61346 513.54101,400.09628 517.86622,394.10073 C 530.13003,377.0903 522.68249,357.71894 505.47257,358.46972 C 498.81477,358.75893 493.45194,360.53552 483.33775,367.24879 C 469.8026,376.2321 461.00463,370.12204 450.04169,362.46321 C 453.16282,367.61356 457.29208,382.53812 459.14304,395.72386 C 459.22803,396.33062 459.29295,396.948 459.34254,397.57128 C 452.36719,401.2071 445.20652,402.92349 437.15579,402.93529 C 427.7428,402.96362 417.01123,400.46341 404.74034,395.52554 C 407.1473,388.4475 409.06791,381.78735 410.58244,375.62416 C 414.65622,359.04342 416.9227,344.87671 417.87651,336.26997 C 418.15273,336.47892 418.29674,336.59225 418.29674,336.59225 C 430.81199,345.30876 440.07861,353.23555 448.09865,353.69947 C 466.7452,354.78077 479.67833,334.75662 506.20327,330.19651 C 524.30681,327.08717 537.14313,332.00851 543.30396,341.1618 C 554.02726,357.09566 551.37949,383.15432 544.00161,396.32825 z M 106.00006,212.84223 C 105.59989,213.0972 104.72044,213.98373 104.82904,214.46654 C 106.15706,213.2908 107.9372,213.03227 108.7588,213.05471 C 109.27348,213.06888 109.92746,213.58827 109.85191,214.57987 C 109.50485,214.37918 108.89927,214.34731 108.37751,214.45237 C 106.26921,214.87615 103.31688,216.67754 102.16593,218.46358 C 101.34433,219.74084 101.06928,222.01912 102.4693,223.02724 C 103.63206,223.86537 106.72605,224.02118 109.53436,220.15399 C 111.92007,216.86523 112.70979,213.51863 111.08785,212.15283 C 109.94044,211.1884 108.15794,211.46934 106.00006,212.84223 z M 107.0306,220.29683 C 105.91271,221.33917 104.6626,221.57645 104.15972,221.00864 C 103.22008,219.94859 104.36276,218.06104 106.07915,216.97383 C 107.50751,216.06842 109.18966,215.58679 109.41985,216.00231 C 109.96995,216.99626 108.09302,219.30761 107.0306,220.29683 z M 237.61195,280.92055 C 216.7414,270.32356 184.91383,277.3107 167.66023,285.8112 C 195.05754,278.12758 219.19086,276.26363 237.61195,280.92055 z M 398.70701,465.70864 C 423.80123,465.27305 424.98051,449.50682 435.51966,440.89772 C 427.09236,440.64628 423.80123,460.72945 398.70701,465.70864 z M 149.70661,384.11403 C 141.06445,382.43188 136.79355,383.10474 121.01669,371.78059 C 117.86251,369.51528 113.41099,367.16853 112.77355,367.07881 C 108.94884,366.55115 116.08001,370.30029 128.95293,380.03909 C 133.85893,383.75164 146.55714,386.09367 147.84029,386.32857 C 149.12346,386.56113 151.81609,384.52484 149.70661,384.11403 z M 445.42608,505.57632 C 453.50279,507.17821 453.21241,510.26393 454.72575,511.43023 C 455.30654,510.96512 454.81428,505.54681 447.67369,503.45149 C 443.85608,496.95778 437.29743,491.74487 431.46833,488.36285 C 431.46833,489.87974 443.97058,499.46154 445.42608,505.57632 z M 139.90289,170.96893 C 140.11537,170.33384 140.35618,168.83467 140.75989,168.78862 C 141.0314,168.75793 142.52232,170.44598 145.53368,170.44598 C 148.54503,170.44598 150.00881,169.28442 150.65923,168.68357 C 151.48319,167.92335 152.24223,166.62956 152.39097,165.50812 C 153.25389,165.64388 154.94549,165.5341 155.77181,165.3948 C 158.06308,165.00879 159.06176,163.73862 158.41722,163.83541 C 158.31216,163.85076 158.04655,163.84132 157.4823,163.83186 C 156.31364,163.81298 154.31394,163.73389 153.02843,163.41634 C 151.7913,163.11179 150.64153,162.16978 149.40205,161.75662 C 147.94182,161.27145 146.08495,161.0873 144.87616,161.28679 C 145.41209,160.19723 146.74601,158.34273 147.00454,157.8611 C 147.26896,157.37003 148.11417,155.79176 146.53707,157.05485 C 145.58798,157.8127 144.24225,159.03802 142.63801,160.62574 C 141.03259,162.21463 140.09884,163.23692 139.4248,164.80457 C 139.2737,165.4432 139.33035,166.42062 139.26426,167.94695 C 139.18517,169.70348 138.99629,171.99003 139.04469,172.02898 C 139.20405,172.15884 139.76713,171.37737 139.90289,170.96893 z M 146.17703,163.60522 C 148.10472,163.48245 149.70542,164.35009 149.80104,165.6061 C 149.8943,166.86093 148.44469,168.20548 146.51464,168.32824 C 144.58695,168.45101 142.95083,167.35554 142.85521,166.09953 C 142.76077,164.8447 144.24698,163.72681 146.17703,163.60522 z "
   id="path14" /><path
   d="M 338.83879,280.5617 C 339.47387,279.01883 340.06528,276.91643 340.06765,274.42919 C 340.06765,274.1636 340.06292,273.89918 340.04875,273.62884 C 339.67337,266.07272 337.52139,253.60588 335.24192,240.40833 C 334.64107,236.92951 334.0284,233.38695 333.437,229.85855 L 333.2434,228.70643 L 332.08301,228.86343 C 329.31364,229.23882 326.59977,229.58942 323.98269,229.9282 C 314.31236,231.1795 305.9606,232.25844 300.98851,233.77887 C 300.11969,234.04211 299.25441,234.37737 298.42218,234.77989 C 298.17193,234.9003 297.93465,235.02307 297.708,235.14584 C 297.35505,235.33707 297.02923,235.5283 296.73412,235.71482 C 296.72703,235.4079 296.71759,235.07738 296.69988,234.71851 C 296.68572,234.39271 296.67392,234.11766 296.65621,233.83081 C 296.53816,231.84409 296.31034,229.74169 295.97391,227.58736 C 295.60679,225.22997 295.1346,222.91863 294.56798,220.72061 L 294.37439,219.98519 C 294.26932,219.59445 294.16898,219.23677 294.07336,218.91096 C 295.15939,219.16359 296.58302,219.37607 298.29233,219.37607 L 298.74917,219.37135 C 304.26074,219.24622 312.98434,217.68919 323.08436,215.88309 C 325.31661,215.48292 327.6008,215.07565 329.90978,214.67194 L 331.06191,214.47007 L 330.89783,213.30968 C 330.09512,207.68243 329.0386,200.14165 328.35865,195.1908 L 328.18749,193.94187 L 326.948,194.16497 C 316.83854,195.98761 308.52929,197.90586 304.15332,199.42747 C 303.68231,199.5892 303.24318,199.76863 302.83593,199.95513 C 302.61989,200.05312 302.40387,200.15817 302.19257,200.26677 C 301.7983,200.46981 301.43943,200.67876 301.11836,200.88179 C 301.10419,200.56071 301.08412,200.20776 301.05933,199.8241 L 300.99795,199.01076 C 300.85156,197.07246 300.60131,194.96533 300.26016,192.7496 C 299.8895,190.38279 299.4362,188.05963 298.91325,185.84155 L 298.75626,185.19112 C 298.65119,184.76144 298.54967,184.36952 298.45642,184.01892 C 299.35947,184.22196 300.49744,184.39194 301.83725,184.40847 L 302.41095,184.41084 C 307.38659,184.41084 316.14443,183.68721 325.26821,182.52682 L 326.51596,182.36746 L 326.30819,181.12679 C 325.7215,177.64562 324.81609,173.41839 324.00157,170.35627 C 323.55536,168.68828 322.85181,167.11118 321.9098,165.66866 C 321.63948,165.25905 321.36915,164.88602 321.10473,164.54723 C 320.98904,164.39849 320.87217,164.25566 320.75885,164.11872 C 323.26852,164.0892 326.77448,163.91922 330.49529,163.34552 C 334.379,162.74231 337.89442,161.78495 340.19277,161.07904 C 340.11013,161.3045 340.03104,161.54532 339.95314,161.79557 C 339.84454,162.14617 339.74184,162.52392 339.64858,162.9241 C 339.34166,164.21906 339.18466,165.58013 339.1823,166.96363 C 339.1823,167.31541 339.19174,167.67309 339.21181,168.04375 C 339.38652,171.12711 339.97439,175.65536 340.43594,178.91344 L 340.61537,180.16708 L 341.85604,179.93217 C 350.12281,178.37396 358.01773,176.48523 362.45625,175.00374 C 363.71934,174.58114 364.7558,174.07354 365.55378,173.60254 C 365.65531,175.55974 365.89729,178.66081 366.48871,182.47606 C 367.04116,186.03515 367.66916,188.73604 368.13427,190.4902 C 367.76832,190.39223 367.36697,190.3037 366.93256,190.22815 C 366.70119,190.188 366.46391,190.15377 366.21366,190.12426 C 365.77217,190.06878 365.29644,190.031 364.79593,190.01921 C 364.44533,190.01212 364.07702,190.0074 363.69456,190.0074 C 359.18047,190.0074 352.10597,190.57402 343.77901,191.60102 L 342.51828,191.75566 L 342.7343,193.00695 C 343.59486,197.98259 344.87093,205.49858 345.80822,211.03611 L 346.00182,212.18589 L 347.15984,212.03125 C 348.78652,211.81877 350.40611,211.60746 352.00682,211.39852 C 361.31711,210.18973 370.11272,209.04586 375.38938,207.48883 C 377.21909,206.94583 378.66397,206.24226 379.71459,205.61899 C 379.76062,207.57383 379.94359,210.66073 380.53855,214.47244 C 381.08746,218.01028 381.75914,220.697 382.27973,222.45235 C 381.94329,222.365 381.57735,222.28118 381.18543,222.20563 C 380.93518,222.15605 380.6684,222.11238 380.38862,222.06988 C 379.55641,221.94947 378.70528,221.88927 377.86126,221.88927 L 377.60864,221.894 C 372.32962,221.96009 363.99557,223.48762 355.17281,225.10721 C 353.26755,225.45545 351.33277,225.81194 349.38265,226.16017 L 348.23407,226.36558 L 348.39932,227.52125 C 349.11233,232.49334 349.77575,237.5103 350.4132,242.36317 C 351.92654,253.86913 353.35962,264.73408 355.05476,271.29389 C 355.77485,274.08097 357.05919,276.16329 358.19006,277.57158 C 358.02717,277.57395 357.85836,277.57631 357.68484,277.57866 C 357.25515,277.58575 356.79123,277.59873 356.30605,277.61762 C 353.51781,277.7156 350.84761,277.96349 348.36628,278.34951 C 345.918,278.72726 343.31863,279.29624 340.63898,280.03639 C 340.14674,280.1745 339.68045,280.30907 339.2484,280.43892 C 339.10911,280.48142 338.97099,280.52274 338.83879,280.5617 L 338.83879,280.5617 z "
   style="fill:#eed717"
   id="path16" /><path
   d="M 342.51355,159.03093 C 342.51355,159.03093 341.72501,160.15473 341.10881,162.14971 C 341.00847,162.4767 340.91167,162.82611 340.8255,163.19678 C 340.5717,164.27572 340.39345,165.54118 340.39109,166.96599 C 340.39109,167.29297 340.40053,167.62942 340.41942,167.9741 C 340.57643,170.76118 341.0911,174.92701 341.63175,178.74463 C 349.71437,177.21947 357.59512,175.35199 362.07142,173.8587 C 365.11465,172.84233 366.6941,171.30064 366.6941,171.30064 C 366.6941,171.30064 366.6941,171.3148 366.6941,171.34432 C 366.6941,171.34668 366.6941,171.34904 366.6941,171.35141 C 366.6941,171.35376 366.6941,171.35495 366.6941,171.3573 C 366.6941,171.89088 366.72598,176.11574 367.68333,182.29073 C 368.70561,188.85527 369.98286,192.46394 369.98286,192.46394 C 369.98286,192.46394 368.74338,191.76864 366.7248,191.42041 C 366.51467,191.38381 366.29748,191.35076 366.07083,191.32361 C 365.66239,191.27286 365.22797,191.2398 364.76995,191.228 C 364.42762,191.22091 364.06877,191.21619 363.69338,191.21619 C 358.91015,191.21619 351.48033,191.86898 343.92775,192.80037 C 344.78712,197.77837 346.06437,205.29554 346.9993,210.83426 C 358.11688,209.35987 368.9724,208.12039 375.04468,206.32726 C 378.92249,205.18221 380.92809,203.26751 380.92809,203.26751 C 380.92809,203.26751 380.90803,203.66651 380.90803,204.4043 C 380.90684,206.11833 381.01308,209.66207 381.73199,214.28711 C 382.75191,220.85164 384.21685,224.43316 384.21685,224.43316 C 384.21685,224.43316 382.99626,223.78509 380.95761,223.39318 C 380.72151,223.34714 380.4748,223.30464 380.21746,223.26687 C 379.50682,223.16417 378.71591,223.09806 377.86126,223.09806 C 377.79161,223.09806 377.72078,223.09925 377.65113,223.09925 C 371.33331,223.18069 360.65959,225.36927 349.59513,227.3489 C 352.03043,244.30031 353.84834,261.80536 356.22342,270.99169 C 357.58685,276.25892 361.12469,278.81697 361.12469,278.81697 C 361.12469,278.81697 360.30899,278.77683 358.94556,278.77683 C 358.57018,278.77683 358.15466,278.78037 357.7049,278.78864 C 357.28347,278.79572 356.83136,278.80635 356.35327,278.82406 C 354.1647,278.90196 351.42132,279.09792 348.55279,279.54295 C 345.7244,279.97972 343.06956,280.61718 340.96361,281.20268 C 340.47844,281.33843 340.0216,281.46946 339.59782,281.59695 C 337.59339,282.19545 336.34683,282.65937 336.34683,282.65937 C 336.34683,282.65937 338.85059,279.34228 338.85885,274.42684 C 338.85885,274.18366 338.85294,273.93812 338.83996,273.68905 C 338.3725,264.23829 335.08964,247.00474 332.24591,230.06159 C 319.29036,231.81694 307.54477,233.0399 301.34263,234.93336 C 300.44195,235.20841 299.64396,235.53303 298.94749,235.86828 C 298.7114,235.9816 298.48946,236.09611 298.27698,236.21062 C 296.4331,237.20929 295.48874,238.19261 295.48874,238.19261 C 295.48874,238.19261 295.53478,237.64252 295.53478,236.60016 C 295.53478,236.10201 295.52415,235.49053 295.49346,234.77164 C 295.48165,234.49895 295.46749,234.2121 295.44978,233.9099 C 295.35416,232.27968 295.15939,230.21623 294.77928,227.77386 C 294.36022,225.07533 293.85144,222.78524 293.39814,221.02281 C 293.33322,220.77019 293.26947,220.52819 293.20691,220.29683 C 292.64146,218.20505 292.20115,217.02814 292.20115,217.02814 C 292.20115,217.02814 294.46173,218.16728 298.29233,218.16728 C 298.43871,218.16728 298.58745,218.1661 298.73736,218.16255 C 305.36565,218.01264 317.20212,215.66234 329.69966,213.48203 C 328.89812,207.85005 327.84043,200.30927 327.16167,195.35488 C 317.77818,197.04766 309.13604,198.97536 304.54995,200.5678 C 304.11673,200.71771 303.71419,200.88179 303.34115,201.05297 C 303.13221,201.1474 302.93508,201.24302 302.74621,201.34217 C 300.90587,202.29362 299.95796,203.323 299.95796,203.323 C 299.95796,203.323 299.96386,203.17307 299.96386,202.87914 C 299.96386,202.34439 299.94615,201.33627 299.8529,199.90438 C 299.83519,199.65176 299.81631,199.38497 299.79506,199.10521 C 299.66756,197.47381 299.44681,195.39856 299.06435,192.93376 C 298.63939,190.20925 298.15657,187.89555 297.73634,186.11896 C 297.68203,185.88995 297.62891,185.67039 297.57697,185.45909 C 297.05875,183.35078 296.67038,182.16088 296.67038,182.16088 C 296.67038,182.16088 298.59807,183.15954 301.85141,183.1985 C 302.03203,183.20086 302.21972,183.20205 302.41095,183.20205 C 307.48103,183.20205 316.19756,182.46308 325.11475,181.32748 C 324.46785,177.48271 323.54946,173.36172 322.8341,170.66909 C 322.36901,168.92674 321.6501,167.48186 320.89579,166.32737 C 320.64906,165.95079 320.39881,165.60492 320.15328,165.29092 C 318.89019,163.67133 317.73333,162.87216 317.73333,162.87216 C 317.73333,162.87216 318.55022,162.91347 319.91365,162.91347 C 322.23914,162.91347 326.15238,162.79425 330.31114,162.14971 C 336.90401,161.12744 342.51355,159.03093 342.51355,159.03093 M 338.42444,162.85326 C 336.26892,163.44822 333.57393,164.09039 330.6818,164.53896 C 327.93723,164.96393 325.30244,165.17052 323.08554,165.26376 C 324.0181,166.74879 324.71811,168.35421 325.17023,170.04581 C 325.99419,173.14924 326.90904,177.41897 327.49928,180.92612 L 327.91716,183.40744 L 325.42049,183.72499 C 316.11138,184.91135 307.51054,185.61963 302.41095,185.61963 C 302.2091,185.61963 302.01078,185.61844 301.81955,185.61609 C 301.19745,185.60782 300.61666,185.57004 300.07719,185.5122 L 300.08781,185.55588 C 300.6202,187.80938 301.07821,190.16439 301.45242,192.56074 C 301.79476,194.76937 302.04856,196.90601 302.20437,198.91396 C 302.2516,198.89273 302.29763,198.87148 302.34486,198.85023 C 302.79578,198.64364 303.27387,198.45123 303.75786,198.2836 C 308.19167,196.74428 316.56585,194.80951 326.73317,192.97626 L 329.21449,192.52886 L 329.55682,195.02789 C 330.18011,199.57857 331.22363,207.02728 332.09364,213.14088 L 332.42415,215.46048 L 330.11518,215.86302 C 327.80738,216.26673 325.52083,216.67517 323.28621,217.07417 C 313.14135,218.88736 304.38115,220.45265 298.79166,220.57896 C 298.6264,220.58368 298.45877,220.58486 298.29233,220.58486 C 297.36095,220.58486 296.50865,220.52465 295.74135,220.43022 C 296.31742,222.66601 296.79787,225.01276 297.16853,227.4032 C 297.50851,229.58823 297.74105,231.7107 297.86028,233.70803 C 297.87444,233.70214 297.88861,233.69505 297.90278,233.68797 C 298.77395,233.2689 299.69471,232.90887 300.63672,232.62202 C 305.71035,231.07207 314.11758,229.98487 323.85402,228.72531 C 326.45929,228.38888 329.16255,228.03947 331.92129,227.66526 L 334.24207,227.35127 L 334.62926,229.66142 C 335.22421,233.20398 335.83805,236.75953 336.44127,240.25369 C 338.72309,253.46776 340.87744,265.94996 341.25519,273.56983 C 341.26935,273.85313 341.27644,274.14235 341.27644,274.42684 C 341.27289,276.03227 341.04034,277.49367 340.70627,278.76622 C 343.28204,278.06502 345.79524,277.52201 348.18213,277.1537 C 350.61859,276.77595 353.22034,276.53042 355.91887,276.42064 C 355.12324,275.11268 354.37718,273.50608 353.88257,271.59727 C 352.16973,264.97371 350.73664,254.08632 349.21976,242.56032 C 348.57876,237.69917 347.91771,232.67159 347.20234,227.69241 L 346.86945,225.3799 L 349.16899,224.96909 C 351.12383,224.61968 353.06687,224.26318 354.9745,223.91377 C 363.84093,222.28708 372.2163,220.7513 377.61927,220.68166 L 377.86126,220.68048 C 378.77022,220.68048 379.67917,220.74659 380.56451,220.87525 C 380.57632,220.87644 380.58694,220.87879 380.59756,220.87998 C 380.17968,219.23323 379.72993,217.14855 379.34274,214.65896 C 378.90951,211.86953 378.6923,209.45666 378.58606,207.57619 C 377.75974,207.95748 376.80829,208.32814 375.72935,208.64569 C 370.35707,210.23223 361.50598,211.38317 352.13431,212.60023 C 350.54304,212.80681 348.9329,213.01575 347.31685,213.23059 L 345.00433,213.53751 L 344.61478,211.2368 C 343.67985,205.70043 342.40377,198.1868 341.54557,193.21117 L 341.11353,190.71095 L 343.63145,190.4005 C 352.00682,189.36758 359.13207,188.79861 363.69338,188.79861 C 364.08529,188.79861 364.46304,188.80333 364.81953,188.81041 C 365.34838,188.82458 365.86306,188.86236 366.36594,188.92374 C 366.41197,188.92964 366.45802,188.93554 366.50523,188.94144 C 366.11804,187.28997 365.68717,185.1864 365.29408,182.66376 C 364.85731,179.84481 364.60823,177.40599 364.4654,175.51961 C 363.9696,175.74153 363.4266,175.9552 362.83754,176.15115 C 358.35533,177.64679 350.4014,179.55088 342.07915,181.11971 L 339.5931,181.58953 L 339.23777,179.08342 C 338.77268,175.80174 338.18245,171.23336 338.00656,168.10986 C 337.98412,167.72031 337.9735,167.33783 337.9735,166.96599 C 337.97587,165.5695 338.12697,164.18837 338.42444,162.85326 L 338.42444,162.85326 z "
   id="path18" /></svg>